<?xml version="1.0"?>
<svg xmlns="http://www.w3.org/2000/svg" xmlns:xlink="http://www.w3.org/1999/xlink" xmlns:svgjs="http://svgjs.com/svgjs" version="1.1" width="512" height="512" x="0" y="0" viewBox="0 0 512 512" style="enable-background:new 0 0 512 512" xml:space="preserve" class=""><g><path xmlns="http://www.w3.org/2000/svg" d="m80 24h248v48h-248z" fill="#d7e6eb" data-original="#d7e6eb" style=""/><path xmlns="http://www.w3.org/2000/svg" d="m112 24 32 32h88l-32-32z" fill="#dadada" data-original="#ccdce4" style="" class=""/><path xmlns="http://www.w3.org/2000/svg" d="m56 24 32 32h88l-32-32z" fill="#9ba7ae" data-original="#b4c2c9" style="" class=""/><path xmlns="http://www.w3.org/2000/svg" d="m24 456v-432h56l32 32h216v400z" fill="#ff9e00" data-original="#ecae49" style="" class=""/><path xmlns="http://www.w3.org/2000/svg" d="m101.65 128.8h240v328h-240z" fill="#dadada" transform="matrix(.973 -.23 .23 .973 -61.393 58.819)" data-original="#ccdce4" style="" class=""/><g xmlns="http://www.w3.org/2000/svg" fill="#abbac2"><path d="m146.766 280.054h16v15.999h-16z" transform="matrix(.973 -.23 .23 .973 -62.101 43.317)" fill="#5a676e" data-original="#abbac2" style="" class=""/><path d="m177.051 265.336h80.001v15.999h-80.001z" transform="matrix(.973 -.23 .23 .973 -57.046 57.247)" fill="#5a676e" data-original="#abbac2" style="" class=""/><path d="m136.41 296.478h176v15.999h-176z" transform="matrix(.973 -.23 .23 .973 -64.012 59.775)" fill="#5a676e" data-original="#abbac2" style="" class=""/><path d="m143.769 327.621h175.999v15.999h-175.999z" transform="matrix(.973 -.23 .23 .973 -70.977 62.302)" fill="#5a676e" data-original="#abbac2" style="" class=""/><path d="m151.128 358.763h176v15.999h-176z" transform="matrix(.973 -.23 .23 .973 -77.942 64.829)" fill="#5a676e" data-original="#abbac2" style="" class=""/><path d="m158.916 393.585h144v15.999h-144z" transform="matrix(.973 -.23 .23 .973 -86.171 63.874)" fill="#5a676e" data-original="#abbac2" style="" class=""/></g><path xmlns="http://www.w3.org/2000/svg" d="m120.494 171.265h160v64h-160z" fill="#7a8a9a" transform="matrix(.973 -.23 .23 .973 -41.371 51.554)" data-original="#7a8a9a" style=""/><circle xmlns="http://www.w3.org/2000/svg" cx="376" cy="216" fill="#0093ba" r="112" data-original="#0093ba" style=""/><path xmlns="http://www.w3.org/2000/svg" d="m392 352v120a16 16 0 0 1 -16 16 16 16 0 0 1 -16-16v-120z" fill="#ff9e00" data-original="#ecae49" style="" class=""/><path xmlns="http://www.w3.org/2000/svg" d="m360 352h32v24h-32z" fill="#d7a145" data-original="#d7a145" style="" class=""/><rect xmlns="http://www.w3.org/2000/svg" fill="#986010" height="32" rx="16" width="64" x="344" y="328" data-original="#d08b29" style="" class=""/><circle xmlns="http://www.w3.org/2000/svg" cx="376" cy="216" fill="#7fcbe5" r="80" data-original="#7fcbe5" style="" class=""/><path xmlns="http://www.w3.org/2000/svg" d="m360 456h32a0 0 0 0 1 0 0v16a16 16 0 0 1 -16 16 16 16 0 0 1 -16-16v-16a0 0 0 0 1 0 0z" fill="#986010" data-original="#d08b29" style="" class=""/></g></svg>
