<?xml version="1.0"?>
<svg xmlns="http://www.w3.org/2000/svg" xmlns:xlink="http://www.w3.org/1999/xlink" xmlns:svgjs="http://svgjs.com/svgjs" version="1.1" width="512" height="512" x="0" y="0" viewBox="0 0 511 512" style="enable-background:new 0 0 512 512" xml:space="preserve" class=""><g><path xmlns="http://www.w3.org/2000/svg" d="m423.601562 512h-412.273437c-7.265625 0-12.472656-7.023438-10.351563-13.972656l81.390626-266.949219 19.578124-64.230469 24.703126-81c1.386718-4.558594 5.597656-7.664062 10.359374-7.664062h160.914063c4.761719 0 8.972656 3.105468 10.359375 7.664062l24.699219 81 17.710937 58.082032 1.871094 6.148437 47.214844 154.871094 34.175781 112.078125c2.117187 6.949218-3.089844 13.972656-10.351563 13.972656zm0 0" fill="#53f4a0" data-original="#53f4a0" style=""/><path xmlns="http://www.w3.org/2000/svg" d="m399.777344 385.949219h-124.175782c-13.128906 0-23.8125-10.683594-23.8125-23.8125v-113.394531c0-13.140626 10.683594-23.8125 23.8125-23.8125h75.085938l1.875 6.148437zm0 0" fill="#3ad391" data-original="#3ad391" style=""/><path xmlns="http://www.w3.org/2000/svg" d="m377.113281 511.996094h-319.296875l86.128906-433.8125h147.039063zm0 0" fill="#3ad391" data-original="#3ad391" style=""/><path xmlns="http://www.w3.org/2000/svg" d="m363.863281 512h-292.796875l86.117188-433.816406h120.5625l29.128906 146.746094 31.960938 161.019531zm0 0" fill="#1a94af" data-original="#1a94af" style="" class=""/><path xmlns="http://www.w3.org/2000/svg" d="m338.835938 385.949219h-63.234376c-13.128906 0-23.8125-10.683594-23.8125-23.8125v-113.394531c0-13.140626 10.683594-23.8125 23.8125-23.8125h31.269532zm0 0" fill="#097789" data-original="#097789" style=""/><path xmlns="http://www.w3.org/2000/svg" d="m246.355469 512h-57.777344l16.992187-433.820312h23.789063zm0 0" fill="#f0fffc" data-original="#f0fffc" style="" class=""/><path xmlns="http://www.w3.org/2000/svg" d="m460.785156 372.960938h-185.183594c-5.976562 0-10.824218-4.84375-10.824218-10.824219v-113.398438c0-5.976562 4.847656-10.824219 10.824218-10.824219h185.183594c5.980469 0 10.824219 4.847657 10.824219 10.824219v113.398438c0 5.980469-4.84375 10.824219-10.824219 10.824219zm0 0" fill="#f0fffc" data-original="#f0fffc" style="" class=""/><path xmlns="http://www.w3.org/2000/svg" d="m466.355469 98.164062c0 44.359376-65.714844 133.226563-89.609375 164.070313-4.332032 5.59375-12.769532 5.59375-17.105469 0-23.890625-30.84375-89.609375-119.710937-89.609375-164.070313 0-54.214843 43.949219-98.164062 98.164062-98.164062 54.214844 0 98.160157 43.949219 98.160157 98.164062zm0 0" fill="#ff5656" data-original="#ff5656" style="" class=""/><path xmlns="http://www.w3.org/2000/svg" d="m466.359375 98.164062c0 44.359376-65.714844 133.226563-89.613281 164.066407-4.332032 5.59375-12.773438 5.59375-17.105469 0-.691406-.898438-1.417969-1.839844-2.175781-2.824219 25.472656-33.132812 87.429687-118.171875 87.429687-161.242188 0-50.589843-38.265625-92.230468-87.429687-97.578124 3.519531-.390626 7.101562-.585938 10.726562-.585938 54.21875 0 98.167969 43.945312 98.167969 98.164062zm0 0" fill="#f72d2d" data-original="#f72d2d" style=""/><path xmlns="http://www.w3.org/2000/svg" d="m322.273438 287.554688h-20.484376c-4.269531 0-7.726562-3.460938-7.726562-7.726563s3.457031-7.726563 7.726562-7.726563h20.484376c4.269531 0 7.726562 3.460938 7.726562 7.726563s-3.460938 7.726563-7.726562 7.726563zm0 0" fill="#ff5656" data-original="#ff5656" style="" class=""/><path xmlns="http://www.w3.org/2000/svg" d="m438.558594 320.070312h-136.769532c-4.269531 0-7.726562-3.457031-7.726562-7.722656 0-4.269531 3.457031-7.726562 7.726562-7.726562h136.769532c4.265625 0 7.722656 3.457031 7.722656 7.726562.003906 4.265625-3.457031 7.722656-7.722656 7.722656zm0 0" fill="#1a94af" data-original="#1a94af" style="" class=""/><path xmlns="http://www.w3.org/2000/svg" d="m438.558594 343.484375h-136.769532c-4.269531 0-7.726562-3.457031-7.726562-7.726563 0-4.265624 3.457031-7.726562 7.726562-7.726562h136.769532c4.265625 0 7.722656 3.460938 7.722656 7.726562.003906 4.269532-3.457031 7.726563-7.722656 7.726563zm0 0" fill="#1a94af" data-original="#1a94af" style="" class=""/><path xmlns="http://www.w3.org/2000/svg" d="m403.914062 84.496094c0 19.726562-15.992187 35.71875-35.71875 35.71875-19.730468 0-35.722656-15.992188-35.722656-35.71875 0-19.730469 15.992188-35.722656 35.722656-35.722656 19.726563 0 35.71875 15.992187 35.71875 35.722656zm0 0" fill="#f0fffc" data-original="#f0fffc" style="" class=""/></g></svg>
