<?xml version="1.0"?>
<svg xmlns="http://www.w3.org/2000/svg" xmlns:xlink="http://www.w3.org/1999/xlink" xmlns:svgjs="http://svgjs.com/svgjs" version="1.1" width="512" height="512" x="0" y="0" viewBox="0 0 128 128" style="enable-background:new 0 0 512 512" xml:space="preserve" class=""><g><g xmlns="http://www.w3.org/2000/svg" id="number"><text fill="#24253a" font-family="MyriadPro-Regular, Myriad Pro" font-size="40" letter-spacing=".002em" transform="translate(53.681 -54.265)" svgjs:data="{&quot;leading&quot;:&quot;1.3&quot;}">1<tspan x="-10.3" y="228" svgjs:data="{&quot;leading&quot;:&quot;1.3&quot;}">11</tspan><tspan x="-10.3" y="456" svgjs:data="{&quot;leading&quot;:&quot;1.3&quot;}">21</tspan><tspan x="-10.3" y="684" svgjs:data="{&quot;leading&quot;:&quot;1.3&quot;}">31</tspan><tspan x="-10.3" y="912" svgjs:data="{&quot;leading&quot;:&quot;1.3&quot;}">41</tspan><tspan x="-10.3" y="1140" svgjs:data="{&quot;leading&quot;:&quot;1.3&quot;}">51</tspan><tspan x="-10.3" y="1368" svgjs:data="{&quot;leading&quot;:&quot;1.3&quot;}">61</tspan><tspan x="-10.3" y="1596" svgjs:data="{&quot;leading&quot;:&quot;1.3&quot;}">71</tspan><tspan x="-10.3" y="1824" svgjs:data="{&quot;leading&quot;:&quot;1.3&quot;}">81</tspan><tspan x="-10.3" y="2052" svgjs:data="{&quot;leading&quot;:&quot;1.3&quot;}">91</tspan><tspan x="-20.599" y="2280" svgjs:data="{&quot;leading&quot;:&quot;1.3&quot;}">101</tspan><tspan x="-20.599" y="2508" svgjs:data="{&quot;leading&quot;:&quot;1.3&quot;}">111</tspan><tspan x="-20.599" y="2736" svgjs:data="{&quot;leading&quot;:&quot;1.3&quot;}">121</tspan><tspan x="-20.599" y="2964" svgjs:data="{&quot;leading&quot;:&quot;1.3&quot;}">131</tspan><tspan x="-20.599" y="3192" svgjs:data="{&quot;leading&quot;:&quot;1.3&quot;}">141</tspan><tspan x="-20.599" y="3420" svgjs:data="{&quot;leading&quot;:&quot;1.3&quot;}">151</tspan><tspan x="-20.599" y="3648" svgjs:data="{&quot;leading&quot;:&quot;1.3&quot;}">161</tspan><tspan x="-20.599" y="3876" svgjs:data="{&quot;leading&quot;:&quot;1.3&quot;}">171</tspan><tspan x="-20.599" y="4104" svgjs:data="{&quot;leading&quot;:&quot;1.3&quot;}">181</tspan><tspan x="-20.599" y="4332" svgjs:data="{&quot;leading&quot;:&quot;1.3&quot;}">191</tspan><tspan x="-20.599" y="4560" svgjs:data="{&quot;leading&quot;:&quot;1.3&quot;}">201</tspan><tspan x="-20.599" y="4788" svgjs:data="{&quot;leading&quot;:&quot;1.3&quot;}">211</tspan><tspan x="-20.599" y="5016" svgjs:data="{&quot;leading&quot;:&quot;1.3&quot;}">221</tspan><tspan x="-20.599" y="5244" svgjs:data="{&quot;leading&quot;:&quot;1.3&quot;}">231</tspan><tspan x="-20.599" y="5472" svgjs:data="{&quot;leading&quot;:&quot;1.3&quot;}">241</tspan></text></g><g xmlns="http://www.w3.org/2000/svg" id="Circle_Grid" data-name="Circle Grid"><circle cx="64" cy="64" fill="#ff0000" r="64" data-original="#ef5261" style="" class=""/></g><g xmlns="http://www.w3.org/2000/svg" id="icon"><circle cx="64.511" cy="95.833" fill="#ffffff" r="9.667" data-original="#f6c863" style="" class=""/><path d="m67.948 22.448v10.932h-7.9v-10.932a3.948 3.948 0 0 1 3.952-3.948 3.948 3.948 0 0 1 3.948 3.948z" fill="#ffffff" data-original="#eab54e" style="" class=""/><path d="m100.415 90.833h-72.83l1.834-3.3a52.691 52.691 0 0 0 6.616-25.561v-7.616c0-15.307 12.067-28.2 27.37-28.517a27.963 27.963 0 0 1 28.55 27.954v8.155a52.689 52.689 0 0 0 6.614 25.559z" fill="#ffffff" data-original="#f6c863" style="" class=""/><rect fill="#ffffff" height="8.75" rx="4.375" width="80" x="24" y="87.083" data-original="#eab54e" style="" class=""/></g></g></svg>
