<?xml version="1.0"?>
<svg xmlns="http://www.w3.org/2000/svg" xmlns:xlink="http://www.w3.org/1999/xlink" xmlns:svgjs="http://svgjs.com/svgjs" version="1.1" width="512" height="512" x="0" y="0" viewBox="0 0 128 128" style="enable-background:new 0 0 512 512" xml:space="preserve" class=""><g><g xmlns="http://www.w3.org/2000/svg" id="Circle_Grid" data-name="Circle Grid"><circle cx="64" cy="64" fill="#216c36" r="64" data-original="#f6c863" style="" class=""/></g><g xmlns="http://www.w3.org/2000/svg" id="icon"><path d="m23 23.771h64.008v80.457h-64.008z" fill="#eeefee" data-original="#eeefee" style="" class=""/><path d="m31.052 39.008-4.14-4.138 1.69-1.69 2.45 2.449 6.569-6.57 1.689 1.69z" fill="#ef5261" data-original="#ef5261" style="" class=""/><path d="m42.633 35.942h27.422v1.838h-27.422z" fill="#dbd8dd" data-original="#dbd8dd" style="" class=""/><path d="m42.633 30.748h40.463v1.838h-40.463z" fill="#dbd8dd" data-original="#dbd8dd" style="" class=""/><path d="m31.052 53.991-4.14-4.138 1.69-1.69 2.45 2.449 6.569-6.57 1.689 1.69z" fill="#575b6d" data-original="#575b6d" style=""/><path d="m42.633 50.925h27.422v1.838h-27.422z" fill="#dbd8dd" data-original="#dbd8dd" style="" class=""/><path d="m42.633 45.731h40.463v1.838h-40.463z" fill="#dbd8dd" data-original="#dbd8dd" style="" class=""/><path d="m31.052 68.975-4.14-4.139 1.69-1.69 2.45 2.449 6.569-6.57 1.689 1.69z" fill="#575b6d" data-original="#575b6d" style=""/><path d="m42.633 65.909h27.422v1.838h-27.422z" fill="#dbd8dd" data-original="#dbd8dd" style="" class=""/><path d="m42.633 60.714h40.463v1.838h-40.463z" fill="#dbd8dd" data-original="#dbd8dd" style="" class=""/><path d="m31.052 83.958-4.14-4.139 1.69-1.689 2.45 2.448 6.569-6.569 1.689 1.689z" fill="#ef5261" data-original="#ef5261" style="" class=""/><path d="m42.633 80.892h14.862v1.838h-14.862z" fill="#dbd8dd" data-original="#dbd8dd" style="" class=""/><path d="m42.633 75.697h25.343v1.838h-25.343z" fill="#dbd8dd" data-original="#dbd8dd" style="" class=""/><path d="m31.052 98.941-4.14-4.138 1.69-1.69 2.45 2.449 6.569-6.57 1.689 1.69z" fill="#575b6d" data-original="#575b6d" style=""/><path d="m42.633 95.875h37.421v1.838h-37.421z" fill="#dbd8dd" data-original="#dbd8dd" style="" class=""/><path d="m42.633 90.681h23.604v1.838h-23.604z" fill="#dbd8dd" data-original="#dbd8dd" style="" class=""/><path d="m104.588 47.379-3.257 4.891-7.585-5.052 3.254-4.891a2.445 2.445 0 0 1 3.394-.68l3.52 2.344a2.443 2.443 0 0 1 .674 3.388z" fill="#575b6d" data-original="#575b6d" style=""/><path d="m77.186 88.525-8.169 4.046.584-9.1a7.091 7.091 0 0 1 7.585 5.054z" fill="#f6b863" data-original="#f6b863" style="" class=""/><path d="m101.331 52.27-24.145 36.255a8.585 8.585 0 0 0 -1.565-2.736 6.271 6.271 0 0 0 -2.891-1.926 8.582 8.582 0 0 0 -3.128-.39l24.143-36.255z" fill="#16a897" data-original="#16a897" style="" class=""/><path d="m92.854 48.009h9.117v3.854h-9.117z" fill="#eeefee" transform="matrix(.832 .554 -.554 .832 44.013 -45.622)" data-original="#eeefee" style="" class=""/><path d="m97.79 52.5-22.17 33.289a6.271 6.271 0 0 0 -2.891-1.926l22.171-33.289z" fill="#2cbfae" data-original="#2cbfae" style="" class=""/><path d="m73.294 90.452a3.7 3.7 0 0 0 -3.973-2.627l-.3 4.745 4.175-2.136" fill="#575b6d" data-original="#575b6d" style=""/></g></g></svg>
