<?xml version="1.0"?>
<svg xmlns="http://www.w3.org/2000/svg" xmlns:xlink="http://www.w3.org/1999/xlink" xmlns:svgjs="http://svgjs.com/svgjs" version="1.1" width="512" height="512" x="0" y="0" viewBox="0 0 32 32" style="enable-background:new 0 0 512 512" xml:space="preserve" class=""><g><path xmlns="http://www.w3.org/2000/svg" d="m26 32h-20c-3.314 0-6-2.686-6-6v-20c0-3.314 2.686-6 6-6h20c3.314 0 6 2.686 6 6v20c0 3.314-2.686 6-6 6z" fill="#6e0000" data-original="#f5e6fe" style="" class=""/><g xmlns="http://www.w3.org/2000/svg" fill="#be63f9"><path d="m10.4 10.733c0-.667 1.011-2.4 2.933-2.4 1.911 0 2.94 1.733 2.94 2.4-.007 0-.02.007-.027.007-1.12.3-1.847-.92-1.873-.973-.118-.192-.368-.213-.52-.073-1.413 1.313-3.3 1.059-3.453 1.039z" fill="#ffffff" data-original="#be63f9" style="" class=""/><path d="m14.02 10.427c-1.52 1.193-3.313 1.02-3.68.973-.081 1.215 1.094 2.933 2.993 2.933 1.907 0 3.079-1.73 2.993-2.933-.883.23-1.727-.249-2.306-.973z" fill="#ffffff" data-original="#be63f9" style="" class=""/><path d="m15.804 15.667h-5.304c-1.379 0-2.5 1.121-2.5 2.5v2.333c0 .276.224.5.5.5h6.104c-.625-1.893-.144-3.918 1.2-5.333z" fill="#ffffff" data-original="#be63f9" style="" class=""/></g><path xmlns="http://www.w3.org/2000/svg" d="m19.667 15c-2.389 0-4.333 1.944-4.333 4.333s1.944 4.333 4.333 4.333 4.333-1.943 4.333-4.333-1.944-4.333-4.333-4.333zm0 7.333c-.276 0-.5-.224-.5-.5s.224-.5.5-.5.5.224.5.5-.224.5-.5.5zm.994-2.895c-.436.335-.494.644-.494 1.062 0 .276-.224.5-.5.5-.827 0-.619-1.584.385-2.355.176-.135.282-.356.282-.59 0-.398-.299-.722-.667-.722s-.667.324-.667.723c0 .276-.224.5-.5.5s-.5-.224-.5-.5c0-.95.748-1.722 1.667-1.722s1.667.773 1.667 1.722c-.001.542-.252 1.059-.673 1.382z" fill="#ffffff" data-original="#d9a4fc" style="" class=""/></g></svg>
