<?xml version="1.0"?>
<svg xmlns="http://www.w3.org/2000/svg" xmlns:xlink="http://www.w3.org/1999/xlink" xmlns:svgjs="http://svgjs.com/svgjs" version="1.1" width="512" height="512" x="0" y="0" viewBox="0 0 32 32" style="enable-background:new 0 0 512 512" xml:space="preserve" class=""><g><path xmlns="http://www.w3.org/2000/svg" d="m26 32h-20c-3.314 0-6-2.686-6-6v-20c0-3.314 2.686-6 6-6h20c3.314 0 6 2.686 6 6v20c0 3.314-2.686 6-6 6z" fill="#661200" data-original="#f5e6fe" style="" class=""/><g xmlns="http://www.w3.org/2000/svg" fill="#be63f9"><path d="m10.4 10.733c0-.013 0-.033.007-.047.293-1.346 1.493-2.353 2.926-2.353 1.911 0 2.94 1.733 2.94 2.4-.007 0-.02.007-.027.007-1.12.3-1.847-.92-1.873-.973-.118-.192-.368-.213-.52-.073-1.413 1.313-3.3 1.059-3.453 1.039z" fill="#ffffff" data-original="#be63f9" style="" class=""/><path d="m14.02 10.427c-1.52 1.193-3.313 1.02-3.68.973-.081 1.215 1.094 2.933 2.993 2.933 1.907 0 3.079-1.73 2.993-2.933-.883.23-1.727-.249-2.306-.973z" fill="#ffffff" data-original="#be63f9" style="" class=""/><path d="m15.804 15.667h-5.304c-1.379 0-2.5 1.121-2.5 2.5v2.333c0 .276.224.5.5.5h6.104c-.625-1.893-.144-3.918 1.2-5.333z" fill="#ffffff" data-original="#be63f9" style="" class=""/></g><path xmlns="http://www.w3.org/2000/svg" d="m19.667 15c-2.389 0-4.333 1.944-4.333 4.333s1.944 4.333 4.333 4.333 4.333-1.943 4.333-4.333-1.944-4.333-4.333-4.333zm2.168 3.272-2.333 2.667c-.254.29-.7.305-.973.032l-1.333-1.333c-.26-.26-.26-.682 0-.943s.682-.26.943 0l.829.829 1.864-2.131c.243-.276.664-.305.941-.062s.305.664.062.941z" fill="#ffffff" data-original="#d9a4fc" style="" class=""/></g></svg>
