<?xml version="1.0"?>
<svg xmlns="http://www.w3.org/2000/svg" xmlns:xlink="http://www.w3.org/1999/xlink" xmlns:svgjs="http://svgjs.com/svgjs" version="1.1" width="512" height="512" x="0" y="0" viewBox="0 0 512 512" style="enable-background:new 0 0 512 512" xml:space="preserve" class=""><g><g xmlns="http://www.w3.org/2000/svg"><path d="m424.316 445.018c47.218-44.66 76.685-107.896 76.685-178.019 0-135.31-109.691-245.001-245.001-245.001s-245.001 109.691-245.001 245.001 109.691 245.001 245.001 245.001c10.603 0 21.049-.675 31.297-1.981z" fill="#816ae2" data-original="#816ae2" style="" class=""/><path d="m396.836 365.562c-2.15-7.901-2.908-16.116-2.24-24.277l4.001-37.685c1.953-23.645-1.65-47.335-12.118-68.626-27.045-55.013-20.84-59.005-21.681-113.604 0-11.154-9.042-20.196-20.196-20.196-11.154 0-20.196 9.042-20.196 20.196 0 222.032.413 205.739-.956 212.249v29.074c0 24.496-19.929 44.426-44.425 44.426-16.269 0-72.374 0-110.552 0 16.984 23.62 40.219 42.114 67.183 53.313.167.069.334.139.501.21 20.833 8.799 44.094 26.357 47.981 48.142l.376 1.557c54.861-6.36 104.192-30.834 141.86-67.297z" fill="#f9ba8f" data-original="#f9ba8f" style="" class=""/><path d="m93.463 101.881-6.151-5.699c-9.483-8.786-24.43-8.216-33.216 1.266s-8.216 24.43 1.267 33.216l38.101 35.303v-64.086z" fill="#f9ba8f" data-original="#f9ba8f" style="" class=""/><path d="m67.863 112.997c-5.817-5.39-8.264-13.096-7.271-20.439-2.373 1.215-4.585 2.829-6.496 4.89-8.786 9.483-8.216 24.43 1.267 33.216l38.101 35.303v-29.249z" fill="#fcad6d" data-original="#fcad6d" style="" class=""/><g><path d="m398.676 370.387c-8.342 57.526-57.852 101.719-117.69 101.719-10.331 0-20.353-1.319-29.909-3.794 15.843 9.687 30.095 23.845 33.061 40.471l.376 1.557c54.861-6.36 104.191-30.834 141.86-67.297z" fill="#fd995b" data-original="#fd995b" style=""/></g><g><path d="m289.615 408.075h-162.235c-19.185 0-34.792-15.608-34.792-34.793v-338.489c0-19.185 15.607-34.793 34.792-34.793h162.235c19.184 0 34.792 15.608 34.792 34.793v338.49c0 19.184-15.608 34.792-34.792 34.792z" fill="#2a428c" data-original="#2a428c" style=""/></g><path d="m127.38 0c-19.185 0-34.792 15.608-34.792 34.793v338.49c0 19.185 15.608 34.793 34.792 34.793h55.127c-10.887-12.449 1.327-21.646 1.327-21.646-16-5.238-15.36-21.429-15.36-21.429s0-70.5 0-92.531 26.892-23.729 26.892-23.729l-8.334-190.13c-13.469-5.264-7.639-19.113-7.639-19.113-5.858-7.503 0-14.565 0-14.565v-12.026c-7.274-5.093-2.227-12.906-2.226-12.907z" fill="#142766" data-original="#142766" style=""/><g><path d="m182.867 24.933h-3.474c-3.321 0-6.013-2.692-6.013-6.013s2.692-6.013 6.013-6.013h3.474c3.321 0 6.013 2.692 6.013 6.013s-2.693 6.013-6.013 6.013z" fill="#3c58a0" data-original="#3c58a0" style=""/></g><g><path d="m236.771 24.933h-33.382c-3.321 0-6.013-2.692-6.013-6.013s2.692-6.013 6.013-6.013h33.382c3.321 0 6.013 2.692 6.013 6.013s-2.692 6.013-6.013 6.013z" fill="#3c58a0" data-original="#3c58a0" style=""/></g><path d="m289.615 21.646h-24.383c-4.546 0-8.23 3.685-8.23 8.23 0 5.291-4.329 9.621-9.62 9.621h-77.767c-5.291 0-9.621-4.329-9.621-9.621 0-4.545-3.685-8.23-8.23-8.23h-24.384c-7.26 0-13.146 5.886-13.146 13.146v338.49c0 7.26 5.886 13.146 13.146 13.146h162.235c7.26 0 13.146-5.886 13.146-13.146 0-34.819 0-329.197 0-338.49 0-7.26-5.886-13.146-13.146-13.146z" fill="#ffe98d" data-original="#ffe98d" style=""/><path d="m168.473 365s0-70.5 0-92.531 26.892-23.729 26.892-23.729l-8.334-190.13c-13.469-5.264-7.639-19.113-7.639-19.113h-9.778c-5.292 0-9.621-4.329-9.621-9.621 0-4.545-3.685-8.23-8.23-8.23h-24.383c-7.26 0-13.146 5.886-13.146 13.146v338.49c0 7.26 5.885 13.146 13.146 13.146h56.453c-16-5.238-15.36-21.428-15.36-21.428z" fill="#ffdd40" data-original="#ffdd40" style="" class=""/><path d="m127.669 225.842c-7.731 8.343-20.761 8.84-29.104 1.109l-34.497-31.964c-8.343-7.73-8.84-20.761-1.109-29.104 7.73-8.343 20.761-8.84 29.104-1.109l34.497 31.964c8.343 7.731 8.839 20.761 1.109 29.104z" fill="#f9ba8f" data-original="#f9ba8f" style="" class=""/><path d="m112.757 212.422-34.497-31.964c-5.77-5.346-7.781-13.226-5.92-20.338-3.478 1.004-6.741 2.915-9.381 5.764-7.731 8.343-7.234 21.374 1.109 29.104l34.497 31.964c8.343 7.73 21.373 7.234 29.104-1.109 2.384-2.573 3.98-5.594 4.811-8.766-6.708 1.935-14.229.436-19.723-4.655z" fill="#fcad6d" data-original="#fcad6d" style="" class=""/><g><path d="m127.669 338.19c-7.731 8.343-20.761 8.84-29.104 1.109l-34.497-31.964c-8.343-7.73-8.84-20.761-1.109-29.104 7.73-8.343 20.761-8.84 29.104-1.109l34.497 31.964c8.343 7.731 8.839 20.761 1.109 29.104z" fill="#f9ba8f" data-original="#f9ba8f" style="" class=""/></g><path d="m112.757 324.77-34.497-31.964c-5.77-5.346-7.781-13.225-5.92-20.338-3.478 1.004-6.741 2.915-9.381 5.764-7.731 8.343-7.234 21.374 1.109 29.104l34.497 31.964c8.343 7.73 21.373 7.234 29.104-1.109 2.384-2.573 3.98-5.594 4.811-8.766-6.708 1.936-14.229.436-19.723-4.655z" fill="#fcad6d" data-original="#fcad6d" style="" class=""/><path d="m127.669 282.016c-7.731 8.343-20.761 8.84-29.104 1.109l-34.497-31.964c-8.343-7.731-8.84-20.761-1.109-29.104 7.73-8.343 20.761-8.84 29.104-1.109l34.497 31.964c8.343 7.731 8.839 20.761 1.109 29.104z" fill="#f9ba8f" data-original="#f9ba8f" style="" class=""/><path d="m112.757 268.596-34.497-31.964c-5.77-5.346-7.781-13.226-5.92-20.338-3.478 1.004-6.741 2.915-9.381 5.764-7.731 8.343-7.234 21.373 1.109 29.104l34.497 31.964c8.343 7.73 21.373 7.234 29.104-1.109 2.384-2.573 3.98-5.594 4.811-8.766-6.708 1.935-14.229.436-19.723-4.655z" fill="#fcad6d" data-original="#fcad6d" style="" class=""/><path d="m208.175 131.901c0-17.231 14.098-31.33 31.33-31.33h149.167v-11.771c0-17.231-14.099-31.33-31.33-31.33h-161.977c-17.232 0-31.33 14.098-31.33 31.33v128.61c0 17.231 14.098 31.33 31.33 31.33h12.809v-116.839z" fill="#4fabf7" data-original="#4fabf7" style=""/><path d="m195.365 57.47c-17.232 0-31.33 14.098-31.33 31.33v128.61c0 17.231 14.098 31.33 31.33 31.33h12.809v-116.839c0-17.231 14.098-31.33 31.33-31.33h24.405c.229-1.286.388-2 .388-2-29.034-11.761-15.054-41.101-15.054-41.101z" fill="#1886ea" data-original="#1886ea" style="" class=""/><path d="m399.481 98.572h-161.976c-17.231 0-31.33 14.098-31.33 31.33v128.61c0 17.231 14.098 31.33 31.33 31.33 4.405 0 6.846 5.058 4.152 8.543-2.869 3.712-6.087 7.174-9.658 10.32-6.663 5.869-2.915 17.901 5.535 17.875 21.475-.067 41.6-10.967 55.297-28.721 3.85-4.99 9.709-8.017 16.011-8.017h90.639c17.232 0 31.33-14.098 31.33-31.33v-128.61c0-17.232-14.098-31.33-31.33-31.33z" fill="#e9efff" data-original="#e9efff" style="" class=""/><path d="m237.505 98.572c-17.232 0-31.33 14.098-31.33 31.33v128.61c0 17.231 14.098 31.33 31.33 31.33 4.405 0 6.846 5.058 4.152 8.543-2.87 3.712-6.087 7.174-9.658 10.32-6.663 5.869-2.915 17.901 5.535 17.875 21.475-.067 41.6-10.967 55.297-28.721 3.85-4.99 9.709-8.017 16.011-8.017h15.623c-34.132-37.174-8.806-77.152-8.806-77.152l-8.267-27.637c-58.15-21.385-43.094-86.48-43.094-86.48h-26.793z" fill="#bec8f7" data-original="#bec8f7" style="" class=""/><ellipse cx="264.298" cy="197.633" fill="#1886ea" rx="15.055" ry="15.056" transform="matrix(.16 -.987 .987 .16 26.881 426.861)" data-original="#1886ea" style="" class=""/><ellipse cx="315.659" cy="197.633" fill="#1886ea" rx="15.055" ry="15.055" transform="matrix(.707 -.707 .707 .707 -47.293 281.09)" data-original="#1886ea" style="" class=""/><ellipse cx="367.02" cy="197.633" fill="#4fabf7" rx="15.055" ry="15.056" transform="matrix(.23 -.973 .973 .23 90.35 509.428)" data-original="#4fabf7" style=""/></g></g></svg>
