<svg id="Capa_1" enable-background="new 0 0 512 512" height="512" viewBox="0 0 512 512" width="512" xmlns="http://www.w3.org/2000/svg" xmlns:xlink="http://www.w3.org/1999/xlink"><linearGradient id="SVGID_1_" gradientUnits="userSpaceOnUse" x1="0" x2="512" y1="251.838" y2="251.838"><stop offset="0" stop-color="#fff3ee" stop-opacity="0"/><stop offset=".2938" stop-color="#ffeade" stop-opacity=".373"/><stop offset=".7874" stop-color="#ffd6bb"/></linearGradient><g><g><path d="m16.074 298.718c18.727 64.003 72.707 194.564 163.922 182.845 91.486-11.755 55.759-129.725 139.508-145.894 36.867-7.118 61.857 56.689 98.806 54.704 47.588-2.557 71.81-49.663 85.108-89.264 28.197-83.968-14.029-226.352-112.859-251.012-86.244-21.519-96.332 83.855-171.322 53.248-42.149-17.203-37.938-68.576-89.272-78.942-155.298-31.359-138.81 189.15-113.891 274.315z" fill="url(#SVGID_1_)"/></g><g><path d="m288.81 313.683v-13.718c6.722-2.958 13.061-6.797 18.908-11.395h40.431c26.902 0 48.71-21.808 48.71-48.71v-6.221c0-2.154-1.746-3.901-3.901-3.901-14.261-10.976-22.617-27.952-22.617-45.948v-47.42c0-52.898-42.882-95.78-95.78-95.78h-37.121c-52.898 0-95.78 42.882-95.78 95.78v48.189c0 17.856-8.863 34.124-22.782 45.308-2.359 1.896-3.736 4.761-3.736 7.795v2.198c0 26.902 21.808 48.71 48.71 48.71h40.431c5.847 4.598 12.185 8.437 18.908 11.395v13.718c-64.611 6.04-115.183 60.41-115.183 126.6v51.639c0 5.523 4.477 10 10 10h275.987c5.523 0 10-4.477 10-10v-51.639c-.002-66.189-50.574-120.56-115.185-126.6z" fill="#00c" opacity=".1"/><g><path d="m370.341 158.278v-47.42c0-52.898-42.882-95.78-95.78-95.78h-37.121c-52.898 0-95.78 42.882-95.78 95.78v47.42c0 17.996-8.356 34.971-22.617 45.947-2.46 1.893-3.901 4.821-3.901 7.925v2.198c0 26.902 21.808 48.71 48.71 48.71h184.297c26.902 0 48.71-21.808 48.71-48.71v-2.198c0-3.104-1.441-6.032-3.901-7.925-14.261-10.975-22.617-27.951-22.617-45.947z" fill="#ff8b00"/><path d="m94.704 157.914c-1.031 0-2.063-.318-2.938-.955-1.753-1.273-2.486-3.53-1.816-5.59l1.237-3.811-3.241-2.355c-1.752-1.273-2.485-3.53-1.815-5.59.669-2.06 2.589-3.455 4.755-3.455h4.006l1.239-3.811c.669-2.06 2.589-3.455 4.755-3.455 2.166 0 4.086 1.395 4.755 3.455l1.238 3.811h4.007c2.166 0 4.086 1.395 4.755 3.455.67 2.06-.063 4.317-1.816 5.59l-3.241 2.355 1.237 3.81c.67 2.06-.063 4.317-1.816 5.59-1.752 1.272-4.124 1.273-5.878 0l-3.24-2.355-3.242 2.355c-.878.638-1.91.956-2.941.956z" fill="#4d4dff"/><path d="m112.4 312.674c-1.031 0-2.063-.318-2.938-.955l-3.242-2.355-3.242 2.355c-1.752 1.272-4.124 1.273-5.878 0-1.752-1.273-2.485-3.53-1.815-5.59l1.238-3.811-3.241-2.354c-1.753-1.273-2.486-3.53-1.816-5.59.669-2.06 2.589-3.455 4.755-3.455h4.007l1.238-3.81c.669-2.06 2.589-3.455 4.755-3.455s4.086 1.395 4.755 3.455l1.238 3.81h4.007c2.166 0 4.086 1.395 4.755 3.455.67 2.06-.063 4.317-1.816 5.59l-3.241 2.354 1.238 3.811c.67 2.06-.063 4.317-1.815 5.59-.879.637-1.91.955-2.942.955z" fill="#ff9d33"/><path d="m75.577 354.881c-1.279 0-2.56-.488-3.535-1.464l-4.965-4.964-4.965 4.964c-1.951 1.952-5.119 1.952-7.07 0-1.953-1.953-1.953-5.119 0-7.071l8.5-8.5c1.951-1.952 5.119-1.952 7.07 0l8.5 8.5c1.953 1.953 1.953 5.119 0 7.071-.975.976-2.256 1.464-3.535 1.464z" fill="#ff4d4d"/><path d="m412.493 133.35c-1.279 0-2.56-.488-3.535-1.464l-4.965-4.964-4.965 4.964c-1.951 1.952-5.119 1.952-7.07 0-1.953-1.953-1.953-5.119 0-7.071l8.5-8.5c1.951-1.952 5.119-1.952 7.07 0l8.5 8.5c1.953 1.953 1.953 5.119 0 7.071-.975.976-2.256 1.464-3.535 1.464z" fill="#ff9d33"/><path d="m441.533 169.344c-1.279 0-2.56-.488-3.535-1.464l-4.965-4.964-4.965 4.964c-1.951 1.952-5.119 1.952-7.07 0-1.953-1.953-1.953-5.119 0-7.071l8.5-8.5c1.951-1.952 5.119-1.952 7.07 0l8.5 8.5c1.953 1.953 1.953 5.119 0 7.071-.975.976-2.255 1.464-3.535 1.464z" fill="#ff4d4d"/><g><g><g><path d="m403.993 476.41h-295.986v-61.638c0-70.232 56.934-127.167 127.166-127.167h41.654c70.232 0 127.167 56.934 127.167 127.167v61.638z" fill="#6c6cff"/><path d="m108.007 422.152h59.321v54.258h-59.321z" fill="#ffab66"/><path d="m344.672 422.152h59.321v54.258h-59.321z" fill="#ffab66"/><path d="m108.007 422.152h59.321v21.049h-59.321z" fill="#ff9d33"/><path d="m344.672 422.152h59.321v21.049h-59.321z" fill="#ff9d33"/><g fill="#4d4dff"><path d="m167.328 422.152v-30.812c0-4.628-3.752-8.38-8.38-8.38-4.628 0-8.38 3.752-8.38 8.38v30.813h16.76z"/><path d="m361.432 422.152v-30.812c0-4.628-3.752-8.38-8.38-8.38-4.628 0-8.38 3.752-8.38 8.38v30.813h16.76z"/></g></g><path d="m288.81 243.187v48.29c0 18.12-14.69 32.81-32.81 32.81s-32.81-14.69-32.81-32.81v-48.29z" fill="#ffab66"/><path d="m288.81 243.187v48.255c-10.27 4.13-21.31 6.37-32.81 6.37s-22.54-2.24-32.81-6.37v-48.255z" fill="#ff9d33"/><g><g fill="#ffab66"><circle cx="356.031" cy="177.029" r="25.611"/><circle cx="155.969" cy="177.029" r="25.611"/></g><ellipse cx="256" cy="177.029" fill="#ffc599" rx="91.34" ry="104.367"/><g><g><path d="m256 232.729c-4.192 0-7.59-3.398-7.59-7.59v-6.652c0-11.473 6.133-21.919 16.006-27.262 5.989-3.241 9.548-9.485 9.289-16.295-.349-9.187-7.819-16.657-17.007-17.006-4.878-.187-9.484 1.569-12.984 4.938-3.503 3.372-5.432 7.906-5.432 12.766 0 4.192-3.398 7.59-7.59 7.59s-7.59-3.398-7.59-7.59c0-9.024 3.581-17.442 10.083-23.702 6.5-6.258 15.054-9.515 24.089-9.172 17.071.649 30.952 14.529 31.6 31.6.479 12.63-6.124 24.21-17.234 30.222-4.965 2.687-8.05 8.018-8.05 13.911v6.652c.001 4.191-3.398 7.59-7.59 7.59z" fill="#ff4d4d"/></g><circle cx="256.01" cy="247.882" fill="#ff4d4d" r="7.587"/></g></g></g></g><g><path d="m161.937 122.818s119.349 20.067 177.806-27.364l-23.635-42.87h-135.908z" fill="#ff8b00"/><g fill="#00c"><path d="m374.679 325.928c-21.201-23.337-49.808-38.249-80.869-42.238v-6.075c5.453-2.651 10.647-5.859 15.529-9.558h38.812c29.616 0 53.71-24.094 53.71-53.71v-2.2c0-4.626-2.188-9.069-5.852-11.883-4.454-3.427-8.297-7.506-11.454-12.145 1.343-3.441 2.088-7.18 2.088-11.091 0-9.564-4.411-18.114-11.303-23.732v-42.44c0-55.57-45.21-100.78-100.78-100.78h-37.12c-55.57 0-100.78 45.209-100.78 100.78v42.44c-6.892 5.618-11.303 14.168-11.303 23.732 0 3.909.745 7.646 2.086 11.086-3.156 4.632-6.998 8.719-11.45 12.147-3.666 2.816-5.854 7.259-5.854 11.885v2.2c0 29.616 24.094 53.71 53.71 53.71h6.561c2.762 0 5-2.239 5-5s-2.238-5-5-5h-6.561c-24.102 0-43.71-19.608-43.71-43.71v-2.2c0-1.54.728-3.019 1.951-3.958 4.117-3.17 7.792-6.814 10.99-10.864 5.612 6.321 13.79 10.314 22.888 10.314 2.489 0 4.933-.3 7.31-.883 7.953 31.926 28.387 57.961 54.912 70.859v6.075c-31.194 4.005-59.922 19.04-81.133 42.528-21.958 24.314-34.051 55.763-34.051 88.552v61.639c0 2.761 2.238 5 5 5s5-2.239 5-5v-61.639c0-61.301 45-112.691 105.26-121.001 1.19 19.784 17.656 35.517 37.734 35.517 20.077 0 36.541-15.731 37.733-35.513 28.24 3.912 54.219 17.606 73.544 38.879 20.452 22.513 31.716 51.677 31.716 82.12v7.38c0 2.761 2.238 5 5 5s5-2.239 5-5v-7.38c0-32.933-12.186-64.485-34.314-88.843zm15.235-117.735c1.219.936 1.946 2.415 1.946 3.955v2.2c0 24.102-19.608 43.71-43.71 43.71h-27.514c13.215-13.598 23.1-31.293 28.085-51.301 2.377.583 4.821.883 7.31.883 9.1 0 17.281-3.996 22.893-10.32 3.199 4.054 6.868 7.701 10.99 10.873zm-33.883-10.553c-1.81 0-3.578-.254-5.295-.709 1.05-6.456 1.603-13.106 1.603-19.901 0-6.722-.546-13.38-1.606-19.901 1.718-.456 3.486-.711 5.297-.711 11.365 0 20.611 9.246 20.611 20.611.002 11.365-9.245 20.611-20.61 20.611zm-209.371-86.782c0-50.056 40.724-90.78 90.78-90.78h37.119c50.057 0 90.78 40.724 90.78 90.78v37.012c-2.937-.94-6.064-1.452-9.309-1.452-2.491 0-4.937.3-7.316.885-3.557-14.322-9.678-27.741-18.066-39.407 4.375-2.64 8.461-5.491 12.243-8.559 2.145-1.74 2.473-4.889.732-7.033-1.739-2.144-4.888-2.472-7.033-.732-56.01 45.445-172.656 26.512-173.827 26.315-2.728-.454-5.301 1.38-5.759 4.103-.457 2.723 1.379 5.301 4.102 5.759.375.063 3.359.556 8.352 1.186-2.543 5.9-4.606 12.053-6.172 18.372-2.384-.586-4.833-.888-7.318-.888-3.245 0-6.372.512-9.309 1.452v-37.013zm9.309 86.782c-11.365 0-20.611-9.246-20.611-20.611s9.246-20.611 20.611-20.611c1.808 0 3.587.232 5.309.689-1.065 6.549-1.618 13.219-1.618 19.922 0 6.795.553 13.446 1.603 19.901-1.716.456-3.484.71-5.294.71zm13.691-20.611c0-16.405 3.539-32.579 10.237-46.936 10.296 1.001 24.129 1.941 39.788 1.941 3.054 0 6.177-.036 9.355-.114 37.929-.931 68.998-7.367 92.76-19.172 13.25 17.945 20.539 40.661 20.539 64.281 0 54.791-38.731 99.367-86.34 99.367s-86.339-44.576-86.339-99.367zm86.34 142.258c-15.334 0-27.81-12.476-27.81-27.81v-9.733c8.809 3.021 18.144 4.652 27.81 4.652s19-1.631 27.81-4.652v9.733c0 15.334-12.476 27.81-27.81 27.81z"/><path d="m403.993 450.977c-2.762 0-5 2.239-5 5v20.434c0 2.761 2.238 5 5 5s5-2.239 5-5v-20.434c0-2.761-2.238-5-5-5z"/></g></g></g></g></g></svg>