<svg id="Capa_1" enable-background="new 0 0 512 512" height="512" viewBox="0 0 512 512" width="512" xmlns="http://www.w3.org/2000/svg" xmlns:xlink="http://www.w3.org/1999/xlink"><linearGradient id="SVGID_1_" gradientUnits="userSpaceOnUse" x1="26.124" x2="516.11" y1="86.624" y2="373.657"><stop offset=".1024" stop-color="#fff" stop-opacity="0"/><stop offset=".3189" stop-color="#eef" stop-opacity=".302"/><stop offset=".5982" stop-color="#dedeff" stop-opacity=".691"/><stop offset=".8205" stop-color="#d9d9ff"/></linearGradient><g><g><path d="m460.449 38.121c-35.472-39.195-98.702-49.759-144.99-24.225-37.141 20.489-182.114 90.687-222.165 109.717-28.074 13.339-56.099 32.387-66.854 61.55-13.023 35.316 3.472 75.506 28.607 103.526s58.084 47.65 86.78 72.01 54.446 56.541 56.48 94.127c.797 14.736-1.711 31.064 7.061 42.932 9.236 12.494 26.951 14.442 42.486 14.227 26.353-.364 53.061-3.942 77.144-14.649s45.428-29.139 55.877-53.335c22.792-52.778-10.039-117.431 13.122-170.047 15.83-35.961 53.83-56.808 76.136-89.153 30.012-43.519 25.788-107.486-9.684-146.68z" fill="url(#SVGID_1_)"/></g><g><path d="m398.189 286.734c-1.031 0-2.063-.318-2.939-.955l-3.24-2.355-3.242 2.355c-1.752 1.273-4.125 1.273-5.877 0-1.753-1.273-2.486-3.53-1.816-5.59l1.237-3.811-3.241-2.355c-1.752-1.273-2.485-3.53-1.815-5.59.669-2.06 2.589-3.455 4.755-3.455h4.006l1.239-3.811c.669-2.06 2.589-3.455 4.755-3.455 2.166 0 4.086 1.395 4.755 3.455l1.238 3.811h4.007c2.166 0 4.086 1.395 4.755 3.455.67 2.06-.063 4.317-1.816 5.59l-3.241 2.355 1.237 3.81c.67 2.06-.063 4.317-1.816 5.59-.878.638-1.909.956-2.941.956z" fill="#4d4dff"/><path d="m86.888 367.86c-1.031 0-2.063-.318-2.939-.955l-3.241-2.355-3.242 2.355c-1.753 1.272-4.125 1.273-5.878 0-1.752-1.273-2.486-3.53-1.816-5.59l1.238-3.81-3.241-2.355c-1.752-1.273-2.486-3.53-1.816-5.59s2.589-3.455 4.755-3.455h4.006l1.238-3.811c.669-2.06 2.589-3.455 4.755-3.455 2.167 0 4.086 1.395 4.755 3.455l1.238 3.811h4.007c2.166 0 4.086 1.395 4.755 3.455s-.064 4.317-1.816 5.59l-3.242 2.354 1.238 3.81c.669 2.06-.064 4.317-1.816 5.59-.875.638-1.907.956-2.938.956z" fill="#ff9d33"/><path d="m419.697 322.024c-1.279 0-2.56-.488-3.535-1.464l-4.965-4.964-4.965 4.964c-1.951 1.952-5.119 1.952-7.07 0-1.953-1.953-1.953-5.119 0-7.071l8.5-8.5c1.951-1.952 5.119-1.952 7.07 0l8.5 8.5c1.953 1.953 1.953 5.119 0 7.071-.975.976-2.255 1.464-3.535 1.464z" fill="#ff4d4d"/><path d="m410.51 112.788c-1.279 0-2.56-.488-3.535-1.464l-4.965-4.964-4.965 4.964c-1.951 1.952-5.119 1.952-7.07 0-1.953-1.953-1.953-5.119 0-7.071l8.5-8.5c1.951-1.952 5.119-1.952 7.07 0l8.5 8.5c1.953 1.953 1.953 5.119 0 7.071-.976.976-2.256 1.464-3.535 1.464z" fill="#ff9d33"/><path d="m137.667 51.734c-1.28 0-2.559-.488-3.536-1.464l-4.964-4.964-4.964 4.964c-1.953 1.952-5.118 1.952-7.071 0-1.953-1.953-1.953-5.119 0-7.071l8.5-8.5c1.953-1.952 5.118-1.952 7.071 0l8.5 8.5c1.953 1.953 1.953 5.119 0 7.071-.976.976-2.256 1.464-3.536 1.464z" fill="#ff4d4d"/><g><path d="m288.81 307.641v-13.718c28.102-12.364 49.504-40.141 56.27-74.27 3.856 1.827 8.24 2.724 12.862 2.387 12.55-.914 22.732-11.101 23.632-23.652.69-9.617-3.934-18.206-11.234-23.133v-14.18c0-63.149-51.192-114.341-114.341-114.341-63.149 0-114.341 51.192-114.341 114.341v14.179c-7.3 4.927-11.924 13.517-11.234 23.134.901 12.551 11.083 22.738 23.633 23.651 4.623.336 9.005-.56 12.862-2.387 6.766 34.129 28.168 61.906 56.27 74.27v13.718c-64.611 6.04-115.183 60.41-115.183 126.6v61.843c0 5.523 4.477 10 10 10h275.987c5.523 0 10-4.477 10-10v-61.843c0-66.189-50.572-120.559-115.183-126.599z" fill="#00c" opacity=".1"/><g><g><path d="m403.993 480.573h-295.986v-71.843c0-70.232 56.934-127.166 127.166-127.166h41.654c70.232 0 127.166 56.934 127.166 127.166z" fill="#ff4d4d"/><path d="m108.007 416.11h59.321v64.463h-59.321z" fill="#ffab66"/><path d="m344.672 416.11h59.321v64.463h-59.321z" fill="#ffab66"/><path d="m108.007 416.11h59.321v21.049h-59.321z" fill="#ff9d33"/><path d="m344.672 416.11h59.321v21.049h-59.321z" fill="#ff9d33"/><g fill="#ff2c2c"><path d="m167.328 416.11v-30.813c0-4.628-3.752-8.38-8.38-8.38-4.628 0-8.38 3.752-8.38 8.38v30.813z"/><path d="m361.432 416.11v-30.813c0-4.628-3.752-8.38-8.38-8.38-4.628 0-8.38 3.752-8.38 8.38v30.813z"/></g></g><path d="m288.81 237.144v48.29c0 18.12-14.69 32.81-32.81 32.81s-32.81-14.69-32.81-32.81v-48.29z" fill="#ffab66"/><path d="m288.81 237.144v48.255c-10.27 4.13-21.31 6.37-32.81 6.37s-22.54-2.24-32.81-6.37v-48.255z" fill="#ff9d33"/><g><path d="m370.341 177.354v-41.791c0-63.149-51.192-114.341-114.341-114.341-63.149 0-114.341 51.192-114.341 114.341v41.791z" fill="#ff8b00"/><g fill="#ffab66"><circle cx="356.031" cy="170.987" r="25.611"/><circle cx="155.968" cy="170.987" r="25.611"/></g><ellipse cx="256" cy="170.987" fill="#ffc599" rx="91.34" ry="104.367"/><g><g><path d="m256 226.686c-4.192 0-7.59-3.398-7.59-7.59v-6.652c0-11.473 6.133-21.919 16.006-27.262 5.989-3.241 9.548-9.485 9.289-16.295-.349-9.187-7.819-16.657-17.007-17.006-4.878-.187-9.484 1.569-12.984 4.938-3.503 3.372-5.432 7.906-5.432 12.766 0 4.192-3.398 7.59-7.59 7.59s-7.59-3.398-7.59-7.59c0-9.024 3.581-17.442 10.083-23.702 6.5-6.258 15.054-9.515 24.089-9.172 17.071.649 30.952 14.529 31.6 31.6.479 12.63-6.124 24.21-17.234 30.222-4.965 2.687-8.05 8.018-8.05 13.911v6.652c.001 4.192-3.398 7.59-7.59 7.59z" fill="#ff4d4d"/></g><circle cx="256.01" cy="241.84" fill="#ff4d4d" r="7.587"/></g><path d="m292.85 57.39h-77.352c-34.273 0-62.056 27.783-62.056 62.056s72.744 24.83 138.023-21.601c0 0 15.717 22.307 63.441 28.248v-6.647c0-34.272-27.784-62.056-62.056-62.056z" fill="#ff8b00"/><path d="m374.657 319.863c-21.199-23.325-49.797-38.226-80.848-42.214v-6.034c26.831-12.97 47.017-39.199 54.9-70.904 2.381.586 4.829.886 7.322.886 16.879 0 30.611-13.732 30.611-30.611s-13.732-30.611-30.611-30.611c-2.481 0-4.917.298-7.287.878-.975-3.922-2.147-7.785-3.517-11.582 2.894.522 5.905.99 9.061 1.383 2.745.336 5.238-1.604 5.58-4.344.341-2.74-1.604-5.238-4.344-5.58-44.556-5.547-59.843-25.987-59.973-26.166-.766-1.087-1.934-1.824-3.244-2.049-1.312-.226-2.657.083-3.741.854-50.583 35.979-105.405 27.962-126.625 22.845-2.686-.646-5.386 1.005-6.033 3.689-.647 2.685 1.004 5.385 3.689 6.033 2.253.543 4.864 1.117 7.79 1.672-1.635 4.331-3.015 8.748-4.133 13.244-2.37-.58-4.806-.877-7.286-.877-3.245 0-6.372.512-9.31 1.452v-6.264c0-60.291 49.05-109.341 109.341-109.341 26.108 0 51.382 9.351 71.164 26.331 19.573 16.799 32.622 39.992 36.742 65.305.445 2.725 3.006 4.577 5.739 4.132 2.726-.444 4.575-3.013 4.131-5.738-4.498-27.637-18.739-52.954-40.099-71.287-21.593-18.535-49.18-28.742-77.676-28.742-65.805 0-119.341 53.536-119.341 119.341v11.692c-6.891 5.618-11.302 14.168-11.302 23.731 0 16.879 13.732 30.611 30.611 30.611 2.495 0 4.944-.301 7.326-.887 7.886 31.689 28.074 57.922 54.895 70.896v6.042c-31.05 3.988-59.648 18.889-80.848 42.214-22.142 24.361-34.335 55.921-34.335 88.867v71.843c0 2.761 2.239 5 5 5s5-2.239 5-5v-71.843c0-30.453 11.271-59.624 31.736-82.141 19.324-21.262 45.293-34.947 73.524-38.857 1.192 19.782 17.657 35.513 37.734 35.513s36.541-15.73 37.733-35.513c28.23 3.91 54.2 17.596 73.525 38.857 20.465 22.517 31.735 51.688 31.735 82.141v71.843c0 2.761 2.238 5 5 5s5-2.239 5-5v-71.843c0-32.946-12.194-64.506-34.336-88.867zm-18.626-169.487c11.365 0 20.611 9.246 20.611 20.611s-9.246 20.611-20.611 20.611c-1.812 0-3.582-.255-5.3-.711 1.052-6.471 1.609-13.123 1.609-19.9 0-6.759-.536-13.402-1.585-19.906 1.711-.453 3.472-.705 5.276-.705zm-200.062 41.222c-11.365 0-20.611-9.246-20.611-20.611s9.246-20.611 20.611-20.611c1.804 0 3.567.252 5.279.705-1.051 6.508-1.588 13.151-1.588 19.906 0 6.776.559 13.427 1.612 19.899-1.72.457-3.491.712-5.303.712zm100.031 121.646c-15.334 0-27.81-12.476-27.81-27.81v-9.732c3.183 1.085 6.431 2.012 9.756 2.728.354.076.708.113 1.057.113 2.306 0 4.379-1.604 4.883-3.949.581-2.7-1.137-5.359-3.836-5.94-40.787-8.774-70.39-49.849-70.39-97.666 0-14.463 2.635-28.368 7.826-41.37 6.858.893 14.74 1.523 23.373 1.523 25.872 0 58.41-5.638 89.792-26.657 5.535 5.607 18.563 16.137 42.803 22.58 5.892 13.716 8.887 28.487 8.887 43.924 0 47.916-29.674 89.006-70.558 97.704-2.701.575-4.425 3.23-3.851 5.931.5 2.35 2.575 3.96 4.886 3.96.345 0 .694-.036 1.045-.11 3.391-.721 6.703-1.664 9.947-2.769v9.731c0 15.334-12.476 27.809-27.81 27.809z" fill="#00c"/></g></g></g></g></g></svg>