<?xml version="1.0"?>
<svg xmlns="http://www.w3.org/2000/svg" xmlns:xlink="http://www.w3.org/1999/xlink" xmlns:svgjs="http://svgjs.com/svgjs" version="1.1" width="512" height="512" x="0" y="0" viewBox="0 0 512.152 512.152" style="enable-background:new 0 0 512 512" xml:space="preserve"><g><g xmlns="http://www.w3.org/2000/svg"><g><path d="m512.067 256c0 141.387-114.613 256-256 256s-256-114.613-256-256 114.613-256 256-256 256 114.613 256 256z" fill="#cbdffe" data-original="#cbdffe" style=""/><path d="m478.387 129c-85.748 168.692-358.901 168.651-444.64 0-43.257 72.361-44.819 174.732-2.938 248.699h-.004c56.921 108.92 194.276 162.178 309.723 120.022 149.461-50.107 217.621-233.632 137.859-368.721z" fill="#76a9fc" data-original="#76a9fc" style=""/></g><g><path d="m135.864 256.584-83.068 6.649c-13.781 20.79-22.482 44.883-22.258 72.638 0 9.053.929 17.888 2.663 26.429 12.247 60.315 65.553 105.716 129.482 105.716h52.858l26.429-26.429 59.465-79.287 20.703-26.429 26.429-26.429h52.858l14.328-13.215 12.101 13.215h53.739v-52.858z" fill="#ecbea6" data-original="#ecbea6" style=""/><path d="m481.594 280.363v-23.779h-345.73l-83.068 6.649c-3.63 5.477-6.896 11.189-9.75 17.13z" fill="#f6dbcb" data-original="#f6dbcb" style=""/><path d="m162.684 468.017h52.858l26.429-26.429 59.465-79.287h-268.234c12.247 60.315 65.553 105.716 129.482 105.716z" fill="#de916b" data-original="#de916b" style=""/><path d="m401.426 283.013h26.429v26.429h-26.429z" fill="#da5f2a" data-original="#da5f2a" style=""/><g><path d="m414.641 441.588c-21.861 0-39.643-17.783-39.643-39.643 0-6.93 1.82-13.77 5.278-19.783l34.365-59.491 34.353 59.465c3.471 6.039 5.291 12.879 5.291 19.809-.001 21.86-17.784 39.643-39.644 39.643z" fill="#da5f2a" data-original="#da5f2a" style=""/></g><path d="m348.568 415.159v52.858h-133.026v-66.073h105.803z" fill="#ecbea6" data-original="#ecbea6" style=""/><path d="m348.568 362.301v52.858h-159.455v-52.858l32.243-13.215h105.011z" fill="#ecbea6" data-original="#ecbea6" style=""/><g><path d="m70.246 280.363h74.06c16.435-12.89 20.463-31.481 21.814-33.293l74.267-34.084c20.051-9.393 31.233-33.175 22.116-53.352-.06-.132-5.996-12.291-5.996-12.291l-72.719 33.153-77.134 35.914c-22.356 10.476-40.681 26.942-53.858 46.822 5.28 6.816 11.135 12.57 17.45 17.131z" fill="#f6dbcb" data-original="#f6dbcb" style=""/></g><path d="m189.113 309.442h159.455v52.858h-159.455z" fill="#f6dbcb" data-original="#f6dbcb" style=""/></g><g fill="#fff"><g><path d="m291.618 85.601h1.524c6.754 0 12.226 5.472 12.226 12.226v1.528h8.715v-1.528c0-6.754 5.477-12.226 12.227-12.226h1.527v-8.715h-1.527c-6.75 0-12.227-5.477-12.227-12.227v-1.523h-8.715v1.523c0 6.75-5.472 12.227-12.226 12.227h-1.524z" fill="#000000" data-original="#000000" style=""/><path d="m184.296 85.601h1.524c6.754 0 12.226 5.472 12.226 12.226v1.528h8.715v-1.528c0-6.754 5.477-12.226 12.227-12.226h1.527v-8.715h-1.527c-6.75 0-12.227-5.477-12.227-12.227v-1.523h-8.715v1.523c0 6.75-5.472 12.227-12.226 12.227h-1.524z" fill="#000000" data-original="#000000" style=""/></g><path d="m88.092 144.437h1.524c6.754 0 12.226 5.472 12.226 12.226v1.528h8.715v-1.528c0-6.754 5.477-12.226 12.227-12.226h1.527v-8.715h-1.527c-6.75 0-12.227-5.477-12.227-12.227v-1.523h-8.715v1.523c0 6.75-5.472 12.227-12.226 12.227h-1.524z" fill="#ffffff" data-original="#ffffff" style=""/><path d="m387.132 138.456h1.524c6.754 0 12.226 5.472 12.226 12.226v1.528h8.715v-1.528c0-6.754 5.477-12.226 12.227-12.226h1.527v-8.715h-1.527c-6.75 0-12.227-5.477-12.227-12.227v-1.523h-8.715v1.523c0 6.75-5.472 12.227-12.226 12.227h-1.524z" fill="#ffffff" data-original="#ffffff" style=""/><path d="m318.352 199.759h1.524c6.754 0 12.226 5.472 12.226 12.226v1.528h8.715v-1.528c0-6.754 5.477-12.226 12.227-12.226h1.527v-8.715h-1.527c-6.75 0-12.227-5.477-12.227-12.227v-1.523h-8.715v1.523c0 6.75-5.472 12.227-12.226 12.227h-1.524z" fill="#ffffff" data-original="#ffffff" style=""/></g></g></g></svg>
