<?xml version="1.0"?>
<svg xmlns="http://www.w3.org/2000/svg" xmlns:xlink="http://www.w3.org/1999/xlink" xmlns:svgjs="http://svgjs.com/svgjs" version="1.1" width="512" height="512" x="0" y="0" viewBox="0 0 512 512" style="enable-background:new 0 0 512 512" xml:space="preserve"><g><g xmlns="http://www.w3.org/2000/svg"><g><path d="m256 323.731c-141.387 0-243.984-156.485-222.932-193.67 43.962-77.654 127.326-130.061 222.932-130.061 95.833 0 179.366 52.656 223.245 130.615 20.857 37.057-81.858 193.116-223.245 193.116z" fill="#f7de82" data-original="#f7de82" style=""/><path d="m512 256c0 26.051-3.891 51.191-11.129 74.871-5.031 16.469-11.672 32.231-19.75 47.109-8.25 15.2-147.391 36.097-225.121 36.097s-216.871-20.897-225.109-36.097c-3.289-6.031-6.332-12.21-9.121-18.531-14-31.629-21.77-66.629-21.77-103.449 0-46.219 12.25-89.57 33.68-127 44.121 77.07 127.16 129 222.32 129s178.211-51.93 222.32-129c21.43 37.43 33.68 80.781 33.68 127z" fill="#efc142" data-original="#efc142" style=""/><path d="m481.262 377.699c-7.16 13.223-15.434 25.742-24.723 37.43-8.437 10.633-17.719 20.57-27.719 29.723-15.866 14.528-33.57 27.084-52.721 37.278-35.816 19.065-205.223 18.841-241.302-.591-18.728-10.087-36.056-22.438-51.617-36.687-10-9.153-19.282-19.09-27.719-29.723-9.289-11.688-17.563-24.207-24.723-37.43z" fill="#e38d22" data-original="#e38d22" style=""/></g><g><path d="m352.683 427.875c30.264-24.444 50.295-58.958 56.02-97.168l12.817-85.45c4.232-28.216-11.31-55.321-37.805-65.914l-71.043-28.42c-4.675-1.865-7.7-6.337-7.7-11.37v-45.448h-48.972-48.972v45.448c0 5.033-3.025 9.505-7.688 11.37l-71.055 28.42c-26.495 10.593-42.038 37.697-37.805 65.914l12.817 85.45c6.015 40.148 27.674 75.183 58.19 98.897l-13.259 58.653c32.759 15.226 69.268 23.743 107.772 23.743 38.643 0 75.276-8.578 108.126-23.908z" fill="#f6dbcb" data-original="#f6dbcb" style=""/><path d="m90.48 245.257 12.817 85.45c6.015 40.148 27.674 75.183 58.19 98.897l-13.259 58.653c9.798 4.554 19.929 8.511 30.352 11.814v-340.844l-50.295 20.116c-26.495 10.593-42.037 37.697-37.805 65.914z" fill="#faede5" data-original="#faede5" style=""/><path d="m352.683 427.875c30.264-24.444 50.295-58.958 56.02-97.168l12.817-85.45c4.232-28.216-11.31-55.321-37.805-65.914l-71.043-28.42c-4.675-1.865-7.7-6.337-7.7-11.37v-45.448h-48.972v417.895c38.643 0 75.276-8.578 108.126-23.908z" fill="#ecbea6" data-original="#ecbea6" style=""/><g><path d="m207.028 266.323v-24.486c6.755 0 12.243-5.488 12.243-12.243v-36.729h24.486v36.729c0 20.254-16.476 36.729-36.729 36.729z" fill="#ecbea6" data-original="#ecbea6" style=""/></g><g><path d="m304.972 266.323c-20.254 0-36.729-16.475-36.729-36.729v-36.729h24.486v36.729c0 6.755 5.488 12.243 12.243 12.243z" fill="#de916b" data-original="#de916b" style=""/></g><g><path d="m194.785 290.809h24.486v24.486h-24.486z" fill="#e2835a" data-original="#e2835a" style=""/></g><g><path d="m170.299 217.351h24.486v24.486h-24.486z" fill="#e2835a" data-original="#e2835a" style=""/></g><g><path d="m243.757 315.296h24.486v24.486h-24.486z" fill="#e2835a" data-original="#e2835a" style=""/></g><g><path d="m243.757 413.24h24.486v24.486h-24.486z" fill="#e2835a" data-original="#e2835a" style=""/></g><g><path d="m219.271 364.268h24.486v24.486h-24.486z" fill="#e2835a" data-original="#e2835a" style=""/></g><g><path d="m292.729 290.809h24.486v24.486h-24.486z" fill="#da5f2a" data-original="#da5f2a" style=""/></g><g><path d="m317.215 217.351h24.486v24.486h-24.486z" fill="#da5f2a" data-original="#da5f2a" style=""/></g><g><path d="m268.243 364.268h24.486v24.486h-24.486z" fill="#da5f2a" data-original="#da5f2a" style=""/></g><path d="m158.056 254.08h-24.486c0 25.861 6.54 45.78 12.853 65.029 5.978 18.233 11.633 35.45 11.633 57.401 0 21.478-5.512 38.729-11.633 57.401-4.811 14.67-9.745 29.738-11.824 47.52 7.65 4.128 15.537 7.87 23.63 11.217.951-19.021 6.068-34.658 11.461-51.109 7.309-22.284 12.853-40.711 12.853-65.029 0-25.861-6.54-45.78-12.853-65.029-5.979-18.232-11.634-35.449-11.634-57.401z" fill="#ecbea6" data-original="#ecbea6" style=""/><path d="m378.43 254.08h-24.486c0 21.951-5.655 39.168-11.633 57.401-6.313 19.25-12.853 39.168-12.853 65.029 0 23.974 5.371 42.219 12.853 65.029 5.394 16.452 10.51 32.088 11.461 51.109 8.093-3.347 15.98-7.089 23.63-11.217-2.079-17.782-7.013-32.85-11.824-47.52-6.148-18.753-11.633-35.86-11.633-57.401 0-21.952 5.655-39.168 11.633-57.401 6.312-19.249 12.852-39.168 12.852-65.029z" fill="#de916b" data-original="#de916b" style=""/><path d="m256 315.296h12.243v24.486h-12.243z" fill="#e2835a" data-original="#e2835a" style=""/><path d="m256 413.24h12.243v24.486h-12.243z" fill="#e2835a" data-original="#e2835a" style=""/><g fill="#da5f2a"><path d="m256 315.296h12.243v24.486h-12.243z" fill="#da5f2a" data-original="#da5f2a" style=""/><path d="m256 413.24h12.243v24.486h-12.243z" fill="#da5f2a" data-original="#da5f2a" style=""/></g></g><g fill="#fff"><path d="m123.608 99.321h1.524c6.754 0 12.226 5.472 12.226 12.226v1.528h8.715v-1.528c0-6.754 5.477-12.226 12.227-12.226h1.527v-8.715h-1.527c-6.75 0-12.227-5.477-12.227-12.227v-1.523h-8.715v1.523c0 6.75-5.472 12.227-12.226 12.227h-1.524z" fill="#ffffff" data-original="#ffffff" style=""/><path d="m52.437 167.995h1.524c6.754 0 12.226 5.472 12.226 12.226v1.528h8.715v-1.528c0-6.754 5.477-12.226 12.227-12.226h1.527v-8.715h-1.527c-6.75 0-12.227-5.477-12.227-12.227v-1.523h-8.715v1.523c0 6.75-5.472 12.227-12.226 12.227h-1.524z" fill="#ffffff" data-original="#ffffff" style=""/><path d="m387.076 90.606h-1.524c-6.754 0-12.226-5.477-12.226-12.227v-1.523h-8.715v1.523c0 6.75-5.477 12.227-12.227 12.227h-1.527v8.715h1.527c6.75 0 12.227 5.472 12.227 12.226v1.528h8.715v-1.528c0-6.754 5.472-12.226 12.226-12.226h1.524z" fill="#ffffff" data-original="#ffffff" style=""/><path d="m458.248 159.28h-1.524c-6.754 0-12.226-5.477-12.226-12.227v-1.523h-8.715v1.523c0 6.75-5.477 12.227-12.227 12.227h-1.527v8.715h1.527c6.75 0 12.227 5.472 12.227 12.226v1.528h8.715v-1.528c0-6.754 5.472-12.226 12.226-12.226h1.524z" fill="#ffffff" data-original="#ffffff" style=""/></g></g></g></svg>
