<?xml version="1.0"?>
<svg xmlns="http://www.w3.org/2000/svg" xmlns:xlink="http://www.w3.org/1999/xlink" xmlns:svgjs="http://svgjs.com/svgjs" version="1.1" width="512" height="512" x="0" y="0" viewBox="0 0 512 512" style="enable-background:new 0 0 512 512" xml:space="preserve" class=""><g><g xmlns="http://www.w3.org/2000/svg"><g><path d="m81.3 443.102 174.7 40 174.7-40c50.019-46.723 81.3-113.255 81.3-187.102 0-141.385-114.615-256-256-256s-256 114.615-256 256c0 73.847 31.281 140.379 81.3 187.102z" fill="#4d4d79" data-original="#4d4d79" style=""/></g><g><circle cx="256" cy="256" fill="#41416b" r="200" data-original="#41416b" style=""/></g><g><path d="m396.987 216.803c-67.824-114.127-124.165-89.134-99.127-209.707.859-4.136-2.778-7.826-6.915-6.972-20.578 4.246-71.692 22.029-87.82 94.884-1.253 5.658-9.051 6.331-11.199.948-1.966-4.928-3.731-10.994-4.564-18.062-.654-5.543-7.912-7.175-10.837-2.421-22.108 35.927-69.924 121.593-75.539 198.663-7.333 100.667 159.331 166.839 159.331 166.839s206.003-107.505 136.67-224.172z" fill="#ff4155" data-original="#ff4155" style=""/></g><g><path d="m409.715 283.223c-4.007 8.455-11.262 15.365-20.792 18.693-18.893 6.598-39.557-3.369-46.155-22.261l-176.319-23.012c-6.288 16.323-24.626 24.454-40.96 18.161-13.157-5.068-20.993-17.949-20.259-31.299-2.035 10.271-3.507 20.525-4.243 30.632-7.333 100.667 159.331 166.839 159.331 166.839s133.549-69.696 149.397-157.753z" fill="#e80054" data-original="#e80054" style=""/></g><g><path d="m334.119 390.976c45.286-108.372-21.951-165.648-46.845-182.363-3.66-2.457-8.597-.13-9.097 4.25-1.065 9.335-3.859 17.072-7.121 23.246-8.444 15.981-13.155 14.522-11.053-3.431 6.197-52.918-17.38-82.48-32.804-95.831-4.061-3.515-10.295-.2-9.682 5.135 1.964 17.115.968 47.233-22.428 74.702-35.205 41.333-75.421 106.958-23.868 174.292l83.92 15.881z" fill="#ffe141" data-original="#ffe141" style=""/></g><g><path d="m325.477 386.309c-16.962-8.98-23.906-26.615-26.747-39.801-1.182-5.484-8.672-6.282-11.063-1.208-.066.139-.131.278-.195.416-3.273 7.013-8.142 6.795-10.829-.463-8.976-24.238-23.951-36.332-35.053-42.232-4.804-2.554-10.15 2.172-8.267 7.276 8.05 21.828 1.328 37.504-4.193 45.657-2.597 3.835-8.368 3.252-10.256-.977-1.375-3.08-1.926-5.996-2.011-8.591-.187-5.735-4.422-7.788-9.173-4.57-26.17 17.725-26.687 44.491-26.687 44.491l74.997 20.55z" fill="#fceca9" data-original="#fceca9" style=""/></g><g><path d="m370.757 49.208c-.488-4.242-5.803-5.856-8.674-2.695-8.931 9.837-20.457 26.38-14.882 41.82 7.419 20.546 33.861 36.694 35.895 57.647.397 4.094 5.406 5.866 8.4 3.046 8.565-8.067 19.642-21.407 19.038-36.026-.867-21.028-36.49-35.202-39.777-63.792z" fill="#ff4155" data-original="#ff4155" style=""/></g><g><path d="m81.3 443.102c45.746 42.732 107.162 68.898 174.7 68.898s128.954-26.166 174.7-68.898z" fill="#fc6142" data-original="#fc6142" style=""/></g><g><g><path d="m121.418 374.205c-11.122 0-20.139 15.423-20.139 34.449s9.016 34.449 20.139 34.449h269.166v-68.898z" fill="#fe8756" data-original="#fe8756" style=""/></g><g><path d="m130 416.153h260.27v15h-260.27z" fill="#fc6142" data-original="#fc6142" style=""/></g><g><path d="m294.5 401.153h-164.5v-15h164.5c4.142 0 7.5 3.358 7.5 7.5 0 4.143-3.358 7.5-7.5 7.5z" fill="#fc6142" data-original="#fc6142" style=""/></g><g><path d="m151.279 408.654c0-19.026 9.016-34.449 20.139-34.449h-50c-11.122 0-20.139 15.423-20.139 34.449s9.016 34.449 20.139 34.449h50c-11.122-.001-20.139-15.424-20.139-34.449z" fill="#fc6142" data-original="#fc6142" style=""/></g><g><ellipse cx="390.584" cy="408.654" fill="#fc6142" rx="20.139" ry="34.449" data-original="#fc6142" style=""/></g></g></g></g></svg>
