<?xml version="1.0"?>
<svg xmlns="http://www.w3.org/2000/svg" xmlns:xlink="http://www.w3.org/1999/xlink" xmlns:svgjs="http://svgjs.com/svgjs" version="1.1" width="512" height="512" x="0" y="0" viewBox="0 0 128 128" style="enable-background:new 0 0 512 512" xml:space="preserve" class=""><g><g xmlns="http://www.w3.org/2000/svg" id="number"><text fill="#24253a" font-family="MyriadPro-Regular, Myriad Pro" font-size="40" letter-spacing=".002em" transform="translate(43.419 -510.265)" svgjs:data="{&quot;leading&quot;:&quot;1.3&quot;}">10<tspan x="0" y="228" svgjs:data="{&quot;leading&quot;:&quot;1.3&quot;}">20</tspan><tspan x="0" y="456" svgjs:data="{&quot;leading&quot;:&quot;1.3&quot;}">30</tspan><tspan x="0" y="684" svgjs:data="{&quot;leading&quot;:&quot;1.3&quot;}">40</tspan><tspan x="0" y="912" svgjs:data="{&quot;leading&quot;:&quot;1.3&quot;}">50</tspan><tspan x="0" y="1140" svgjs:data="{&quot;leading&quot;:&quot;1.3&quot;}">60</tspan><tspan x="0" y="1368" svgjs:data="{&quot;leading&quot;:&quot;1.3&quot;}">70</tspan><tspan x="0" y="1596" svgjs:data="{&quot;leading&quot;:&quot;1.3&quot;}">80</tspan><tspan x="0" y="1824" svgjs:data="{&quot;leading&quot;:&quot;1.3&quot;}">90</tspan><tspan x="-10.299" y="2052" svgjs:data="{&quot;leading&quot;:&quot;1.3&quot;}">100</tspan><tspan x="-10.299" y="2280" svgjs:data="{&quot;leading&quot;:&quot;1.3&quot;}">110</tspan><tspan x="-10.299" y="2508" svgjs:data="{&quot;leading&quot;:&quot;1.3&quot;}">120</tspan><tspan x="-10.299" y="2736" svgjs:data="{&quot;leading&quot;:&quot;1.3&quot;}">130</tspan><tspan x="-10.299" y="2964" svgjs:data="{&quot;leading&quot;:&quot;1.3&quot;}">140</tspan><tspan x="-10.299" y="3192" svgjs:data="{&quot;leading&quot;:&quot;1.3&quot;}">150</tspan><tspan x="-10.299" y="3420" svgjs:data="{&quot;leading&quot;:&quot;1.3&quot;}">160</tspan><tspan x="-10.299" y="3648" svgjs:data="{&quot;leading&quot;:&quot;1.3&quot;}">170</tspan><tspan x="-10.299" y="3876" svgjs:data="{&quot;leading&quot;:&quot;1.3&quot;}">180</tspan><tspan x="-10.299" y="4104" svgjs:data="{&quot;leading&quot;:&quot;1.3&quot;}">190</tspan><tspan x="-10.299" y="4332" svgjs:data="{&quot;leading&quot;:&quot;1.3&quot;}">200</tspan><tspan x="-10.299" y="4560" svgjs:data="{&quot;leading&quot;:&quot;1.3&quot;}">210</tspan><tspan x="-10.299" y="4788" svgjs:data="{&quot;leading&quot;:&quot;1.3&quot;}">220</tspan><tspan x="-10.299" y="5016" svgjs:data="{&quot;leading&quot;:&quot;1.3&quot;}">230</tspan><tspan x="-10.299" y="5244" svgjs:data="{&quot;leading&quot;:&quot;1.3&quot;}">240</tspan><tspan x="-10.299" y="5472" svgjs:data="{&quot;leading&quot;:&quot;1.3&quot;}">250</tspan></text></g><g xmlns="http://www.w3.org/2000/svg" id="Circle_Grid" data-name="Circle Grid"><circle cx="64" cy="64" fill="#2cbfae" r="64" data-original="#2cbfae" style="" class=""/></g><g xmlns="http://www.w3.org/2000/svg" id="icon"><path d="m105 44.6c-.164 1.81-.928 9.926-2.141 18.506a5.927 5.927 0 0 1 -1.12 2.724c-2.516 3.377-9.9 13.142-17.179 21.325a2.7 2.7 0 0 0 -.667 2.107l.324 2.773-14.941-1.4 1.6-5.764a5.2 5.2 0 0 0 .111-2.272c-.351-2.045-.519-6.978 4.13-12.7 0 0 1.992-2.863 8.779-6.323a30.915 30.915 0 0 0 4.454-2.766c.718-.53 1.378-1.071 1.967-1.6a.744.744 0 0 1 .15-.108.924.924 0 0 1 1.325.391l.143.31a4.061 4.061 0 0 1 -.9 4.694 45.642 45.642 0 0 1 -6.9 5.5.93.93 0 0 0 -.272 1.388c.443.513 1.263.774 2.752-.582 2.358-2.155 8.231-8.2 9.7-9.717a2.18 2.18 0 0 0 .5-.8l5.134-14.3a2.457 2.457 0 0 1 1.967-1.6l.746-.1a.3.3 0 0 1 .338.314z" fill="#fed19a" data-original="#fed19a" style="" class=""/><path d="m65.436 99.418.7-9.684a.823.823 0 0 1 .889-.762l19.744 1.639a.823.823 0 0 1 .752.9l-.979 10.117a.823.823 0 0 1 -.907.74l-19.465-2.068a.823.823 0 0 1 -.734-.882z" fill="#62667c" data-original="#62667c" style=""/><circle cx="70.286" cy="95.073" fill="#eeefee" r="1.862" transform="matrix(.707 -.707 .707 .707 -46.64 77.546)" data-original="#eeefee" style=""/><path d="m23 44.6c.164 1.81.928 9.926 2.141 18.506a5.927 5.927 0 0 0 1.12 2.724c2.516 3.377 9.9 13.142 17.179 21.325a2.7 2.7 0 0 1 .667 2.107l-.324 2.773 14.941-1.4-1.6-5.764a5.2 5.2 0 0 1 -.111-2.272c.351-2.045.519-6.978-4.13-12.7 0 0-1.992-2.863-8.779-6.323a30.915 30.915 0 0 1 -4.454-2.766c-.718-.53-1.378-1.071-1.967-1.6a.744.744 0 0 0 -.15-.108.924.924 0 0 0 -1.325.391l-.143.31a4.061 4.061 0 0 0 .9 4.694 45.642 45.642 0 0 0 6.9 5.5.93.93 0 0 1 .272 1.388c-.443.513-1.263.774-2.752-.582-2.358-2.155-8.231-8.2-9.7-9.717a2.18 2.18 0 0 1 -.5-.8l-5.134-14.3a2.457 2.457 0 0 0 -1.967-1.6l-.746-.1a.3.3 0 0 0 -.338.314z" fill="#fed19a" data-original="#fed19a" style="" class=""/><path d="m62.564 99.418-.7-9.684a.823.823 0 0 0 -.889-.762l-19.74 1.639a.823.823 0 0 0 -.752.9l.979 10.117a.823.823 0 0 0 .907.74l19.461-2.068a.823.823 0 0 0 .734-.882z" fill="#62667c" data-original="#62667c" style=""/><circle cx="57.714" cy="95.073" fill="#eeefee" r="1.862" transform="matrix(.707 -.707 .707 .707 -50.323 68.656)" data-original="#eeefee" style=""/><path d="m86.71 37.465c0 10.369-9.818 23.215-22.7 30.694-12.352-7.295-22.72-20.233-22.72-30.694a11.844 11.844 0 0 1 22.716-4.691 11.837 11.837 0 0 1 22.7 4.691z" fill="#ef5261" data-original="#ef5261" style="" class=""/><path d="m62.615 54.989h-.08a1.107 1.107 0 0 1 -.99-.819l-4.045-15.143-3.309 6.673a1.108 1.108 0 0 1 -.992.615h-15.14a1.108 1.108 0 1 1 0-2.216h14.453l4.311-8.683a1.107 1.107 0 0 1 2.062.207l3.974 14.877 4.831-11.272a1.214 1.214 0 0 1 1.035-.671 1.107 1.107 0 0 1 1.014.7l2.761 7.037 1.946-2.145a1.106 1.106 0 0 1 .82-.363h14.675a1.108 1.108 0 1 1 0 2.216h-14.187l-2.817 3.1a1.094 1.094 0 0 1 -1.02.345 1.107 1.107 0 0 1 -.831-.685l-2.423-6.182-5.03 11.738a1.108 1.108 0 0 1 -1.018.671z" fill="#eeefee" data-original="#eeefee" style=""/></g></g></svg>
