<?xml version="1.0"?>
<svg xmlns="http://www.w3.org/2000/svg" xmlns:xlink="http://www.w3.org/1999/xlink" xmlns:svgjs="http://svgjs.com/svgjs" version="1.1" width="512" height="512" x="0" y="0" viewBox="0 0 512 512" style="enable-background:new 0 0 512 512" xml:space="preserve" class=""><g><g xmlns="http://www.w3.org/2000/svg"><g><path d="m512 256c0 141.387-114.613 256-256 256s-256-114.613-256-256 114.613-256 256-256 256 114.613 256 256z" fill="#979a95" data-original="#d4f6ab" style="" class=""/><path d="m460.482 410.024c7.72-10.238 14.669-21.053 20.78-32.325h-.005c41.997-74.613 40.267-176.149-2.937-248.699-85.748 168.692-358.901 168.651-444.64 0-43.238 72.289-44.821 174.775-2.939 248.699h-.003c87.915 163.525 318.456 180.892 429.744 32.325z" fill="#7f807e" data-original="#aaed58" style="" class=""/></g><g><path d="m214.011 442.027c-12.927-22.369-19.753-48.661-19.753-74.503v-6.596h-12.348-12.348v6.596c0 25.842-6.825 52.134-19.765 74.527-3.232 5.619-4.932 12.011-4.932 18.486 0 20.428 16.617 37.045 37.045 37.045s37.045-16.617 37.045-37.045c0-6.475-1.7-12.866-4.944-18.51z" fill="#e2835a" data-original="#e2835a" style="" class=""/><path d="m218.955 460.537c0-6.476-1.7-12.867-4.944-18.51-12.927-22.369-19.753-48.661-19.753-74.503v-6.596h-12.348v136.654c20.428 0 37.045-16.617 37.045-37.045z" fill="#da5f2a" data-original="#da5f2a" style=""/><g><path d="m116.551 221.479-17.461-17.461 15.966-15.966-24.697-24.697 33.427-33.427 17.462 17.461-15.966 15.966 24.696 24.697z" fill="#e2835a" data-original="#e2835a" style="" class=""/></g><g><path d="m395.449 221.479-33.427-33.427 24.696-24.697-15.966-15.966 17.462-17.461 33.427 33.427-24.697 24.697 15.966 15.966z" fill="#da5f2a" data-original="#da5f2a" style=""/></g><path d="m354.268 234.708c-16.304-9.249-27.482-24.926-30.666-43.026l-11.975-68.884c-4.763-27.06-28.157-46.704-55.627-46.704-28.797 0-51.19 21.501-57.051 54.784l-10.576 60.925c-3.159 18.016-14.338 33.656-30.654 42.918-30.087 17.087-44.039 51.347-34.693 85.256 6.536 23.768 25.191 42.906 48.658 49.936 9.949 2.991 20.066 3.991 30.039 2.991l54.277 12.721 54.277-12.722c2.496.253 4.992.374 7.501.374 7.513 0 15.074-1.122 22.538-3.364 23.467-7.03 42.122-26.168 48.658-49.936 9.345-33.911-4.607-68.17-34.706-85.269z" fill="#f6dbcb" data-original="#f6dbcb" style="" class=""/><path d="m190.066 182.052-1.693 9.75c-3.159 18.016-14.338 33.656-30.654 42.918-30.087 17.087-44.039 51.347-34.694 85.256 6.536 23.768 25.191 42.905 48.658 49.936 6.088 1.83 12.239 2.906 18.382 3.244v-191.104z" fill="#faede5" data-original="#faede5" style="" class=""/><path d="m317.778 373.276c7.513 0 15.074-1.122 22.538-3.364 23.467-7.03 42.122-26.168 48.658-49.936 9.346-33.909-4.606-68.169-34.705-85.268-16.304-9.249-27.482-24.926-30.666-43.026l-11.975-68.884c-4.764-27.06-28.158-46.704-55.628-46.704v309.531l54.277-12.722c2.496.253 4.992.373 7.501.373z" fill="#ecbea6" data-original="#ecbea6" style="" class=""/><path d="m317.741 311.535c0 34.042-27.699 61.742-61.741 61.742s-61.742-27.699-61.742-61.742h-24.696c0 47.657 38.781 86.438 86.438 86.438s86.438-38.781 86.438-86.438z" fill="#ecbea6" data-original="#ecbea6" style="" class=""/><path d="m342.438 311.535h-24.697c0 34.042-27.699 61.742-61.741 61.742v24.697c47.657-.001 86.438-38.783 86.438-86.439z" fill="#de916b" data-original="#de916b" style="" class=""/></g><g fill="#fff"><path d="m69.386 270.921h-1.524c-6.754 0-12.226-5.477-12.226-12.227v-1.523h-8.715v1.523c0 6.75-5.477 12.227-12.227 12.227h-1.527v8.715h1.527c6.75 0 12.227 5.472 12.227 12.226v1.528h8.715v-1.528c0-6.754 5.472-12.226 12.226-12.226h1.524z" fill="#ffffff" data-original="#ffffff" style="" class=""/><path d="m102.451 373.425h-1.524c-6.754 0-12.226-5.477-12.226-12.227v-1.523h-8.715v1.523c0 6.75-5.477 12.227-12.227 12.227h-1.527v8.715h1.527c6.75 0 12.227 5.472 12.227 12.226v1.528h8.715v-1.528c0-6.754 5.472-12.226 12.226-12.226h1.524z" fill="#ffffff" data-original="#ffffff" style="" class=""/><path d="m441.528 279.636h1.524c6.754 0 12.226 5.472 12.226 12.226v1.528h8.715v-1.528c0-6.754 5.477-12.226 12.227-12.226h1.527v-8.715h-1.527c-6.75 0-12.227-5.477-12.227-12.227v-1.523h-8.715v1.523c0 6.75-5.472 12.227-12.226 12.227h-1.524z" fill="#ffffff" data-original="#ffffff" style="" class=""/><path d="m408.462 382.14h1.524c6.754 0 12.226 5.472 12.226 12.226v1.528h8.715v-1.528c0-6.754 5.477-12.226 12.227-12.226h1.527v-8.715h-1.527c-6.75 0-12.227-5.477-12.227-12.227v-1.523h-8.715v1.523c0 6.75-5.472 12.227-12.226 12.227h-1.524z" fill="#ffffff" data-original="#ffffff" style="" class=""/><path d="m320.651 73.648h1.524c6.754 0 12.226 5.472 12.226 12.226v1.528h8.715v-1.528c0-6.754 5.477-12.226 12.227-12.226h1.527v-8.715h-1.527c-6.75 0-12.227-5.477-12.227-12.227v-1.523h-8.715v1.523c0 6.75-5.472 12.227-12.226 12.227h-1.524z" fill="#ffffff" data-original="#ffffff" style="" class=""/><path d="m145.367 73.648h1.524c6.754 0 12.226 5.472 12.226 12.226v1.528h8.715v-1.528c0-6.754 5.477-12.226 12.227-12.226h1.527v-8.715h-1.527c-6.75 0-12.227-5.477-12.227-12.227v-1.523h-8.715v1.523c0 6.75-5.472 12.227-12.226 12.227h-1.524z" fill="#ffffff" data-original="#ffffff" style="" class=""/></g></g></g></svg>
