<?xml version="1.0"?>
<svg xmlns="http://www.w3.org/2000/svg" xmlns:xlink="http://www.w3.org/1999/xlink" xmlns:svgjs="http://svgjs.com/svgjs" version="1.1" width="512" height="512" x="0" y="0" viewBox="0 0 512 512" style="enable-background:new 0 0 512 512" xml:space="preserve" class=""><g>
<circle xmlns="http://www.w3.org/2000/svg" style="" cx="256" cy="256" r="256" fill="#455eef" data-original="#455eef"/>
<path xmlns="http://www.w3.org/2000/svg" style="" d="M492.419,157.667L354.333,19.581l0,0L167.058,464l16.554,37.603C206.568,508.358,230.857,512,256,512  c141.385,0,256-114.615,256-256C512,221.156,505.027,187.944,492.419,157.667z" fill="#0053bf" data-original="#0053bf"/>
<path xmlns="http://www.w3.org/2000/svg" style="" d="M256,0c-3.129,0-6.241,0.076-9.343,0.188l-10.471,0.569C104.061,10.871,0,121.282,0,256  c0,120.075,82.675,220.825,194.202,248.473C364.623,452.719,354.333,239,354.333,239V19.581C324.056,6.973,290.844,0,256,0z" fill="#ffd2c0" data-original="#ffd2c0"/>
<path xmlns="http://www.w3.org/2000/svg" style="" d="M354.333,239V19.581C324.056,6.973,290.844,0,256,0c-3.129,0-6.241,0.076-9.343,0.188l-10.471,0.569  C173.397,5.563,116.957,33.032,75,74.985v362.023c32.362,32.354,73.338,56.095,119.202,67.465  C364.623,452.719,354.333,239,354.333,239z" fill="#ffc09c" data-original="#ffc09c" class=""/>
<path xmlns="http://www.w3.org/2000/svg" style="" d="M297.833,99.215C204.037,99.215,128,175.252,128,269.048c0,92.201,73.474,167.237,165.064,169.763  C360.01,356.942,354.333,239,354.333,239V108.853C336.656,102.618,317.644,99.215,297.833,99.215z" fill="#ff8752" data-original="#ff8752" class=""/>
<path xmlns="http://www.w3.org/2000/svg" style="" d="M217.5,234.5l-64.5-77l-134.667,3.185C6.507,190.145,0,222.313,0,256  c0,14.088,1.152,27.905,3.341,41.374L64.5,316l166.315-47.046L217.5,234.5z" fill="#dd3e14" data-original="#dd3e14"/>
<polygon xmlns="http://www.w3.org/2000/svg" style="" points="217.5,234.5 153,157.5 75,159.345 75,313.03 230.815,268.954 " fill="#cc3011" data-original="#cc3011"/>
<g xmlns="http://www.w3.org/2000/svg">
	
		<rect x="392.661" y="263.878" transform="matrix(-0.9938 -0.1112 0.1112 -0.9938 807.3143 603.782)" style="" width="55.667" height="31" fill="#ffffff" data-original="#ffffff" class=""/>
	
		<rect x="360.711" y="321.827" transform="matrix(-0.6241 -0.7813 0.7813 -0.6241 367.4792 851.4396)" style="" width="55.664" height="30.999" fill="#ffffff" data-original="#ffffff" class=""/>
	
		<rect x="386.62" y="187.918" transform="matrix(-0.6241 -0.7813 0.7813 -0.6241 484.5197 664.5917)" style="" width="30.999" height="55.664" fill="#ffffff" data-original="#ffffff" class=""/>
</g>
<path xmlns="http://www.w3.org/2000/svg" style="" d="M8.896,238.881v-42.154c0-1.918-0.21-3.786-0.598-5.587c-4.02,15.396-6.633,31.359-7.715,47.741  L8.896,238.881L8.896,238.881z" fill="#e1fffa" data-original="#e1fffa" class=""/>
<path xmlns="http://www.w3.org/2000/svg" id="SVGCleanerId_0" style="" d="M193.432,238.881h-52.749v-42.154c0-14.566,11.808-26.375,26.375-26.375l0,0  c14.566,0,26.375,11.808,26.375,26.375L193.432,238.881z" fill="#c8fffa" data-original="#c8fffa"/>
<path xmlns="http://www.w3.org/2000/svg" id="SVGCleanerId_1" style="" d="M74.79,240.377H8.897v-52.658c0-18.196,14.751-32.947,32.947-32.947l0,0  c18.196,0,32.947,9.751,32.947,27.947L74.79,240.377z" fill="#ffffff" data-original="#ffffff" class=""/>
<path xmlns="http://www.w3.org/2000/svg" id="SVGCleanerId_2" style="" d="M140.683,240.377H74.79v-57.658c0-18.196,14.751-27.947,32.947-27.947l0,0  c18.196,0,32.947,14.751,32.947,32.947L140.683,240.377z" fill="#e1fffa" data-original="#e1fffa" class=""/>
<g xmlns="http://www.w3.org/2000/svg">
	<path id="SVGCleanerId_0_1_" style="" d="M193.432,238.881h-52.749v-42.154c0-14.566,11.808-26.375,26.375-26.375l0,0   c14.566,0,26.375,11.808,26.375,26.375L193.432,238.881z" fill="#c8fffa" data-original="#c8fffa"/>
</g>
<g xmlns="http://www.w3.org/2000/svg">
	<path id="SVGCleanerId_1_1_" style="" d="M74.79,240.377H8.897v-52.658c0-18.196,14.751-32.947,32.947-32.947l0,0   c18.196,0,32.947,9.751,32.947,27.947L74.79,240.377z" fill="#ffffff" data-original="#ffffff" class=""/>
</g>
<g xmlns="http://www.w3.org/2000/svg">
	<path id="SVGCleanerId_2_1_" style="" d="M140.683,240.377H74.79v-57.658c0-18.196,14.751-27.947,32.947-27.947l0,0   c18.196,0,32.947,14.751,32.947,32.947L140.683,240.377z" fill="#e1fffa" data-original="#e1fffa" class=""/>
</g>
<path xmlns="http://www.w3.org/2000/svg" style="" d="M0.708,275.094c1.645,22.313,6.155,43.826,13.155,64.183c16.955,3.375,37.053,5.4,60.927,5.4  c146.202,0,156.026-75.629,156.026-75.629s-37.383,7.179-156.026,7.179C44.956,276.228,20.545,275.773,0.708,275.094z" fill="#ff5e33" data-original="#ff5e33"/>
<path xmlns="http://www.w3.org/2000/svg" style="" d="M230.815,269.048c0,0-37.341,7.17-155.815,7.179v68.448  C220.999,344.602,230.815,269.048,230.815,269.048z" fill="#ef4e2e" data-original="#ef4e2e"/>
<path xmlns="http://www.w3.org/2000/svg" style="" d="M79.21,118.489c-15.542,0-29.529,1.714-42.14,4.753c-13.526,22.258-23.737,46.75-29.987,72.782  c19.749-7.508,43.58-12.46,72.127-12.459c118.642,0,151.605,85.389,151.605,85.389S225.412,118.489,79.21,118.489z" fill="#ff5e33" data-original="#ff5e33"/>
<path xmlns="http://www.w3.org/2000/svg" style="" d="M79.21,118.489c-1.421,0-2.815,0.03-4.21,0.058v65.063c1.395-0.024,2.792-0.045,4.21-0.045  c118.642,0,151.605,85.389,151.605,85.389S225.412,118.489,79.21,118.489z" fill="#ef4e2e" data-original="#ef4e2e"/>
<g xmlns="http://www.w3.org/2000/svg">
</g>
<g xmlns="http://www.w3.org/2000/svg">
</g>
<g xmlns="http://www.w3.org/2000/svg">
</g>
<g xmlns="http://www.w3.org/2000/svg">
</g>
<g xmlns="http://www.w3.org/2000/svg">
</g>
<g xmlns="http://www.w3.org/2000/svg">
</g>
<g xmlns="http://www.w3.org/2000/svg">
</g>
<g xmlns="http://www.w3.org/2000/svg">
</g>
<g xmlns="http://www.w3.org/2000/svg">
</g>
<g xmlns="http://www.w3.org/2000/svg">
</g>
<g xmlns="http://www.w3.org/2000/svg">
</g>
<g xmlns="http://www.w3.org/2000/svg">
</g>
<g xmlns="http://www.w3.org/2000/svg">
</g>
<g xmlns="http://www.w3.org/2000/svg">
</g>
<g xmlns="http://www.w3.org/2000/svg">
</g>
</g></svg>
